<mxfile host="app.diagrams.net" modified="2024-02-15T09:20:36.682Z" agent="Mozilla/5.0 (Macintosh; Intel Mac OS X 10_15_7) AppleWebKit/537.36 (KHTML, like Gecko) Chrome/121.0.0.0 Safari/537.36" etag="AUWZL77GA4_0NBZ0tsB7" version="23.1.4" type="github">
  <diagram name="Page-1" id="8H53x881j8Lwl4czOOBp">
    <mxGraphModel dx="1207" dy="765" grid="1" gridSize="10" guides="1" tooltips="1" connect="1" arrows="1" fold="1" page="1" pageScale="1" pageWidth="827" pageHeight="1169" math="0" shadow="0">
      <root>
        <UserObject label="" animation="flow RdrLSPr0gBGK2fed_mAJ-4 start&#xa;wait 1000&#xa;flow RdrLSPr0gBGK2fed_mAJ-4 stop&#xa;wait 1000&#xa;" id="0">
          <mxCell />
        </UserObject>
        <mxCell id="1" parent="0" />
        <mxCell id="82siV1Ass7THwQfGUrbe-1" value="" style="rounded=0;whiteSpace=wrap;html=1;fillColor=#E9EBFD;fillStyle=auto;strokeColor=#161F31;glass=0;shadow=0;" vertex="1" parent="1">
          <mxGeometry x="40" y="320" width="170" height="610" as="geometry" />
        </mxCell>
        <mxCell id="82siV1Ass7THwQfGUrbe-2" value="" style="rounded=0;whiteSpace=wrap;html=1;fillColor=#E9EBFD;fillStyle=auto;strokeColor=#161F31;glass=0;shadow=0;" vertex="1" parent="1">
          <mxGeometry x="230" y="320" width="170" height="610" as="geometry" />
        </mxCell>
        <mxCell id="82siV1Ass7THwQfGUrbe-3" value="" style="rounded=0;whiteSpace=wrap;html=1;fillColor=#E9EBFD;fillStyle=auto;strokeColor=#161F31;glass=0;shadow=0;" vertex="1" parent="1">
          <mxGeometry x="420" y="320" width="170" height="610" as="geometry" />
        </mxCell>
        <mxCell id="82siV1Ass7THwQfGUrbe-21" value="" style="rounded=1;whiteSpace=wrap;html=1;" vertex="1" parent="1">
          <mxGeometry x="60" y="370" width="130" height="100" as="geometry" />
        </mxCell>
        <mxCell id="82siV1Ass7THwQfGUrbe-7" value="" style="shape=image;verticalLabelPosition=bottom;verticalAlign=top;imageAspect=0;aspect=fixed;image=data:image/png,iVBORw0KGgoAAAANSUhEUgAAAXkAAAF5CAYAAAB6A1o9AAAACXBIWXMAACxLAAAsSwGlPZapAAAAAXNSR0IArs4c6QAAAARnQU1BAACxjwv8YQUAABCnSURBVHgB7d2xjlXXucDxRURr0l/mSm4sMTwAuLHkawONixibxkWMTYPk2HIaSzFXdoPsIDmFEdwrpeEaUvgWXHNTpAE7LtIYujTgB4AXgAdw5pszW57BM8zMOWfvvda3fz9pMmZiKWQY/ufba6+9zoGyyU8vPP99OVBeLgCk8KsCQFoiD5CYyAMkJvIAiYk8QGIiD5CYyAMkJvIAiYk8QGIiD5CYyAMkJvIAiYk8QGIiD5CYyAMkJvIAiYk8QGIiD5CYyAMkJvIAiYk8QGIiD5CYyAMkJvIAiYk8QGIiD5CYyAMkJvIAiYk8QGIiD5CYyAMkJvIAiYk8QGIiD5CYyAMkJvIAiYk8QGIiD5CYyAMkJvIAiYk8QGIiD5CYyAMkJvIAiYk8QGIiD5CYyAMkJvIAiYk8QGIiD5CYyAMkJvIAiYk8QGIiD5CYyAMkJvIAiYk8QGIiD5CYyAMkJvIAiYk8QGIiD5CYyAMkJvIAiYk8QGIiD5CYyAMkJvIAiYk8QGIiD5CYyAMkJvIAiYk8QGIiD5CYyAMkJvIAiYl8ZsdeLMC0iXxml75YC/3xAkyXyGd1+s1SDq+U8sHvCzBdIp9VF/dYsjlytADTJPIZRdhjiu/EVA9Mkshn9HTU3zhTynOHCjA9Ip9NTPAR9c0OrQX+7LsFmJ6DhVze/3D7r589V8rVy4VGxIv1ja8Lmzx6WMrbbxX2R+QziTAc32FvfEzzr54s5bs7hUasrBQ2OVCYg+WaTGJP/OFnhOGdcwWYFpHPZLc98bHrxsNRMCkin0X38NNuPBwFkyLyWZw+s7d/L6Z52ylhMkQ+g2fdcN2O7ZQwGSKfwU7bJncS2ylN8zAJIt+67R5+2o2Ho2AyRL5188Z6vy8MQJNEvnUnTpW5xBWA7ZSQnsi3bK/bJndiOyWkJ/ItWzTSHo6C9ES+VU+fGT+v09bmITORb9WydsfEmr7tlJCWyLcoJvh5b7g+zXZKSE3kW7Tfh5924+EoSEvkWzPPw0+7iWne+8BCSiLfmr52w5xc0vIPUBWRb01fe9ttp4SURL4liz78tBsPR0E63uO1ZhH0w4dnn9d3wfT89n0xzcdN3XjD5Ph4/Hjt86NSnjwuQJtEfgyxkyWifWR19nk95iuzr69s+jyG7ab5iPzDLvobLwDd155svBDE14DqiPyyrcf6udnnLthdxOPj14fa264Yv9/Vo7v/ew83XwFsvAA8uO+FAEYk8vsV03cELybwf9tYRolfjzl912JlZffvwXZXBd3HgweWhmDJRH6/njyZLWkcnnjQ57XTVcHVL0u5d7cAy2V3zX7FxPnbtyw9LEtM7h9/VMqVywVYPpGfRwT+9ddK+fF+YQHdC+Y3NwvQD5GfV6wp/2Yt9DeuFebQBf6BF0rok8gv6rOLa+vJlhr2JcIeL5CWvKB3Ir8MV9ZuGn5+sbAHt27OJni7aGAQIr8s16/N1unFa2exg+YPH/kewYBEfpksQ+wsrnTsoIHBifyy2WK5VUzt8f247gY1jEHk+9Btsfzudpm07gXv3g8FGIfI9yW2WL53fro7b2yRhCqIfN9i583UQh+Tu3sTUAWRH8KVCe0qibV3WyShGiI/lG5/eObp9qrnBaA2Ij+kWJ/OGnqHjEGVRH5o3Q3JLIebxbJM7CRyyBhUSeTHEKHPcLhZ9//DDhqolsiPqeXDzTIvPUEiIj+2Fg83m8JNZEhC5GsQ2w5/d76NbYcOGYOmiHwtvr1d/83LeIrXDhpoisjX5MjRUrVDh7yBOTRG5Gty/MVSvWPHC9AOka/FsQYCH2q/2gC2EPlarDYSz6MiDy0R+Vq0sgwSk/xzhwrQBpGvxUojNzTdfIWmiHwNIpwtrXW7+QrNEPkatBbNVu4fACJfhVZ21nRa2OoJrBP5GrS2LTHW5N18hSaIfA1a3JbY2tUHTJTIj2210S2Jbr5CE0R+bEdWS5M8FAVNEPmx9bns0edxwI43gCaI/Nj6mIgj7vGOU//x0uzs9z7e3KO1vf0wUSI/pj5Cee+H2fuuxjtORezjXZxeeamftxm0Lg/VE/kxLTPwMa3HW/Lt9LZ8Ef2I/a0lvjGJh6KgeiI/pmVMwt3STEzvMcU/S8Q/lm+WtYTjoSionsiPadGbrk8vzezVspZwPBQF1RP5Mc170zWm8PfO77w0s1fLWMLxUBRUTeTHMu9DUN3SzHe3y1IsuoTj5itUTeTHst+HoGJpJqbu/S7N7FVM86+/tv8lHA9FQdVEfix7XeZY1tLMXjx+/PMSzl6vFOyVh6odLIxjLxNwTNVfXev3ydXtdC8sp8+U8sGHz34nqG6v/4/3C0sUfwbxYgsLEvkx7PYQVCzN9PWk6n7EEk5M9GfPlfL+hzv/e6urIt+Hsf/8ScFyzRh2CnxM7BH3IZZm9movSzh22EC1RH4M2+1IuX5tdtbMMp9IXaZuCWe7KwwPRUG1RH4MmyffWJqJXS2fXxx+7X0e8SIUVxo3rv38NQ9FQbVEfgxx03Xz0syDxtazY5L/7OJsCadbi19t9Fx8SM6N16HFQ1DfrE3DVy63Mbk/S8Q+HsyKXTiH/33tC3cLUJcDm3/x0wvPf7/2lZcLAClYrgFITOQBEhN5gMREHiAxkQdITOQBEhN5gMREHiAxkQdITOQBEhN5gMREHiAxkQdITOQBEhN5gMREHiAxkQdITOQBEhN5gMREHiAxkQdITOQBEhN5gMREHiAxkQdITOQBEhN5gMREHiAxkQdITOQBEhN5gMREHiAxkQdITOQBEhN5gMREHiAxkQdITOQBEhN5gMREHiAxkQdITOQBEhN5gMREHiAxkQdITOQBEhN5gMREHiAxkQdITOQBEhN5gMREHiAxkQdITOQBEhN5gMREHiAxkQdITOQBEhN5gMREHiAxkQdITOQBEhN5gMREHiAxkQdITOQBEhN5gMREHiAxkQdITOQBEhN5gMREHiAxkQdI7GChbYdXSjmyWspKfD5aynOHZv8cnztPHpfyeOPjx/ulPFj7ePRw7Z8fFCA3kW9NxPvEyVKOvTj7iKDvx8lTP/9zxP/+WvBv3Szl3t1Z+OFpq0dngwFNOrD5Fz+98Pz3a195uVCfY8dLOXuulOMvbp3Sl+nuD7Pgf3tn9gIAMUj8159LeeUlPxONMsnX7vSbax9nZnHvW/xvxEdM9BH8q5dN91P3/oelHFobKs6+O/t5oDkm+VrF5H7pT7M197FE4L+56S/3VMWAET+DIe7nmOabZHdNbSLqN74u5S//O27gu9/LB78v5e//mP2FZ1riz74T03xM9TRH5GsSa+5//dswSzP7EbGPie7jT/q7H0Bd4kX96SHjnXPjDx7sm8jXIMJ54ZPZR80RfWfjRchf9Pw2T/GbmeabI/Jji2D+5evZFN+C+P3+/99m9wzIabspvvPGGX/2jRH5MXWBj33ILYn12bhnELt+yCWuJHea4ju7/fdUReTH0gW+5aWPS18IfTZn97Duvv4gnmm+FSI/hgyB7wh9HvHz+MYed1GZ5psh8mOIJwgz3byMG8ZHGlty4pfipupefy5N880Q+aFFEFtbg99NrNH/959tr2zZ+hS/zyuyC58W6ifyQ4r1zlZ20exXRCJCT5vm2RoZw4qH5Kon8kNZf3o0+R7juIR/+91CY+aZ4juxNu8KrmoiP5SYlKbwlyH+0ntYqi2LPOAUf9ZnvbDXTOSHEJe0b0xkB8qhjad3aUMsuSz6sxlLkKb5aon8EKa23ezEKTsvWvHxEl6Qu6OIqZLI9+1Zj4hnZh91/eJnc1mH4ZnmqyXyfZtq7Oyjrt8yfzZN89US+T5F6KZ8E/LVU4VK9XGFuZcjERicyPdp6nuI44aeS/g69XGF6Y1FqiTyfYkf+KnsqNlJfA88LFOfPu8TOYq4OiLfl1dPFtactGRTnb7vE7npXhWR78sJcVsXB5dZsqnH+wM8rOame1VEvi/ZDiGbVyzZrK4WKrCfo4QXZZqvhsj3IQJvl8HPHENch9jiONTPpWm+GiLfh8OHC5ss64Eb5rd+xszAJ6Ca5qsg8n0wuW5l6Wp8Y2xtjGne7qrRiXwfRG0rS1fjWuQo4UWZ5kcn8n2wm+SXhH48Yz6gFH/uHpAalcj34dciTyXGnOI7Di8blcj3wQ/0L7kZPY4/flFG5/CyUYk8ZHXiZD07m0zzoxF5yOrCp6UapvnRiDxkVOOb1TiKeBQi34cnjwtPefSoMKAaty46ingUIt+Hhw8LT3nkezKYmt9yMnb6mOYHJfJ9ELStHruyGVTtDyBdqmDHz4SIfB8sTWz14/3CQIY4SnhRDi8blMj34YGobXHf92MQQx4lvCjHHQxG5Ptgct3q3t3CAE43tN5tmh+MyPch1qDv/VDY4EWvfxH3DxrbuWKaH4TI9+Wu6XVdLF25Ed2/FrcmxjTvvZB7J/J9McnP3PV96F0Nh5DN6z8reio3KZHvS0TeMkUpt/6v0LOWHzCKF6i3HXfQJ5Hv0507ZdJiqcYLXb9anuI7sTbv8LLeiHyfblyb9hEH1/+n0LMLn5TmObysVyLfp9hl89VEQxc3W2/dLPQoblyeOFVScBRxb0S+b1Od5q9cLvQs0/EApvneiHzfpjjNm+L7V/MhZPMyzfdC5IcwtWneFN+/jA8SOYq4FyI/hJjm//BRmYSY4E3x/co4xXfe8cYiyybyQ/n2dinf3S6pxTKNKb5/2Y8DcBTxUon8kGKaz/yI/2cXHWHQt8xTfMfhZUsl8kOKZZvfnc+5Pn/1y/xXKmNbP4RsIod6ObxsaUR+aPEUaEy8mcQavGWa/rV0lPCiTPNLI/JjiCheTRLFeNGayk3lMbV4lPCiTPNLIfJjufJl+6GPQ9h++1ZhAFPcWmiaXwqRH1OE/vNGl27iaiQCP+WzeYaS4RCyeV36U2ExIj+269dKef21tnalxE1WSzTDmfIDQvECd7qR962tlMjXINa1Yyqu/VjemNrfO+8m65CmPMV3LnzquIMFiHwtYpL/zWv1rtPH+nv8/myTHJbH/B1etiCRr02s07/yUj1HA8SLT0zvcaXhQadhxY3HqU/xHYeXzU3kaxQxjTXvCOtY7xUbSzNxVWF6H0+GNwRZFtP83A5s/sVPLzz//dpXXi7UZX2ie3P2MEzf4kXl2zulfHPTzpkxxc1GO0u2iifG4yrXz+W+iHxL4iZcF/z4vCxx5RAHqEXcx7pyYKu//8NpjNv56lopf0z2xHjPRL5VsT55fONhkdWjs4+9rFnGFBRRjx09d9eCfu+utXZITOSzielvuwkwQh6Xuy51YVIOFnKJmJvMgQ121wAkJvIAiYk8QGIiD5CYyAMkJvIAiYk8QGIiD5CYyAMkJvIAiYk8QGIiD5CYyAMkJvIAiYk8QGIiD5CYyAMkJvIAiYk8QGIiD5CYyAMkJvIAiYk8QGIiD5CYyAMkJvIAiYk8QGIiD5CYyAMkJvIAiYk8QGIiD5CYyAMkJvIAiYk8QGIiD5CYyAMkJvIAiYk8QGIiD5CYyAMkJvIAiYk8QGIiD5CYyAMkJvIAiYk8QGIiD5CYyAMkJvIAiYk8QGIiD5CYyAMkJvIAiYk8QGIiD5CYyAMkJvIAiYk8QGIiD5CYyAMkJvIAiYk8QGIiD5CYyAMkJvIAiYk8QGIiD5CYyAMkJvIAiYk8QGIHt/zqV+Wfa/95oACQwr8AEGR/tYeLYswAAAAASUVORK5CYII=;imageBackground=none;fillStyle=cross-hatch;" vertex="1" parent="1">
          <mxGeometry x="95" y="390" width="60" height="60" as="geometry" />
        </mxCell>
        <mxCell id="82siV1Ass7THwQfGUrbe-22" value="" style="rounded=1;whiteSpace=wrap;html=1;" vertex="1" parent="1">
          <mxGeometry x="60" y="490" width="320" height="100" as="geometry" />
        </mxCell>
        <mxCell id="82siV1Ass7THwQfGUrbe-8" value="" style="shape=image;verticalLabelPosition=bottom;verticalAlign=top;imageAspect=0;aspect=fixed;image=data:image/png,iVBORw0KGgoAAAANSUhEUgAAAXkAAAF5CAYAAAB6A1o9AAAACXBIWXMAACxLAAAsSwGlPZapAAAAAXNSR0IArs4c6QAAAARnQU1BAACxjwv8YQUAABCnSURBVHgB7d2xjlXXucDxRURr0l/mSm4sMTwAuLHkawONixibxkWMTYPk2HIaSzFXdoPsIDmFEdwrpeEaUvgWXHNTpAE7LtIYujTgB4AXgAdw5pszW57BM8zMOWfvvda3fz9pMmZiKWQY/ufba6+9zoGyyU8vPP99OVBeLgCk8KsCQFoiD5CYyAMkJvIAiYk8QGIiD5CYyAMkJvIAiYk8QGIiD5CYyAMkJvIAiYk8QGIiD5CYyAMkJvIAiYk8QGIiD5CYyAMkJvIAiYk8QGIiD5CYyAMkJvIAiYk8QGIiD5CYyAMkJvIAiYk8QGIiD5CYyAMkJvIAiYk8QGIiD5CYyAMkJvIAiYk8QGIiD5CYyAMkJvIAiYk8QGIiD5CYyAMkJvIAiYk8QGIiD5CYyAMkJvIAiYk8QGIiD5CYyAMkJvIAiYk8QGIiD5CYyAMkJvIAiYk8QGIiD5CYyAMkJvIAiYk8QGIiD5CYyAMkJvIAiYk8QGIiD5CYyAMkJvIAiYk8QGIiD5CYyAMkJvIAiYk8QGIiD5CYyAMkJvIAiYl8ZsdeLMC0iXxml75YC/3xAkyXyGd1+s1SDq+U8sHvCzBdIp9VF/dYsjlytADTJPIZRdhjiu/EVA9Mkshn9HTU3zhTynOHCjA9Ip9NTPAR9c0OrQX+7LsFmJ6DhVze/3D7r589V8rVy4VGxIv1ja8Lmzx6WMrbbxX2R+QziTAc32FvfEzzr54s5bs7hUasrBQ2OVCYg+WaTGJP/OFnhOGdcwWYFpHPZLc98bHrxsNRMCkin0X38NNuPBwFkyLyWZw+s7d/L6Z52ylhMkQ+g2fdcN2O7ZQwGSKfwU7bJncS2ylN8zAJIt+67R5+2o2Ho2AyRL5188Z6vy8MQJNEvnUnTpW5xBWA7ZSQnsi3bK/bJndiOyWkJ/ItWzTSHo6C9ES+VU+fGT+v09bmITORb9WydsfEmr7tlJCWyLcoJvh5b7g+zXZKSE3kW7Tfh5924+EoSEvkWzPPw0+7iWne+8BCSiLfmr52w5xc0vIPUBWRb01fe9ttp4SURL4liz78tBsPR0E63uO1ZhH0w4dnn9d3wfT89n0xzcdN3XjD5Ph4/Hjt86NSnjwuQJtEfgyxkyWifWR19nk95iuzr69s+jyG7ab5iPzDLvobLwDd155svBDE14DqiPyyrcf6udnnLthdxOPj14fa264Yv9/Vo7v/ew83XwFsvAA8uO+FAEYk8vsV03cELybwf9tYRolfjzl912JlZffvwXZXBd3HgweWhmDJRH6/njyZLWkcnnjQ57XTVcHVL0u5d7cAy2V3zX7FxPnbtyw9LEtM7h9/VMqVywVYPpGfRwT+9ddK+fF+YQHdC+Y3NwvQD5GfV6wp/2Yt9DeuFebQBf6BF0rok8gv6rOLa+vJlhr2JcIeL5CWvKB3Ir8MV9ZuGn5+sbAHt27OJni7aGAQIr8s16/N1unFa2exg+YPH/kewYBEfpksQ+wsrnTsoIHBifyy2WK5VUzt8f247gY1jEHk+9Btsfzudpm07gXv3g8FGIfI9yW2WL53fro7b2yRhCqIfN9i583UQh+Tu3sTUAWRH8KVCe0qibV3WyShGiI/lG5/eObp9qrnBaA2Ij+kWJ/OGnqHjEGVRH5o3Q3JLIebxbJM7CRyyBhUSeTHEKHPcLhZ9//DDhqolsiPqeXDzTIvPUEiIj+2Fg83m8JNZEhC5GsQ2w5/d76NbYcOGYOmiHwtvr1d/83LeIrXDhpoisjX5MjRUrVDh7yBOTRG5Gty/MVSvWPHC9AOka/FsQYCH2q/2gC2EPlarDYSz6MiDy0R+Vq0sgwSk/xzhwrQBpGvxUojNzTdfIWmiHwNIpwtrXW7+QrNEPkatBbNVu4fACJfhVZ21nRa2OoJrBP5GrS2LTHW5N18hSaIfA1a3JbY2tUHTJTIj2210S2Jbr5CE0R+bEdWS5M8FAVNEPmx9bns0edxwI43gCaI/Nj6mIgj7vGOU//x0uzs9z7e3KO1vf0wUSI/pj5Cee+H2fuuxjtORezjXZxeeamftxm0Lg/VE/kxLTPwMa3HW/Lt9LZ8Ef2I/a0lvjGJh6KgeiI/pmVMwt3STEzvMcU/S8Q/lm+WtYTjoSionsiPadGbrk8vzezVspZwPBQF1RP5Mc170zWm8PfO77w0s1fLWMLxUBRUTeTHMu9DUN3SzHe3y1IsuoTj5itUTeTHst+HoGJpJqbu/S7N7FVM86+/tv8lHA9FQdVEfix7XeZY1tLMXjx+/PMSzl6vFOyVh6odLIxjLxNwTNVfXev3ydXtdC8sp8+U8sGHz34nqG6v/4/3C0sUfwbxYgsLEvkx7PYQVCzN9PWk6n7EEk5M9GfPlfL+hzv/e6urIt+Hsf/8ScFyzRh2CnxM7BH3IZZm9movSzh22EC1RH4M2+1IuX5tdtbMMp9IXaZuCWe7KwwPRUG1RH4MmyffWJqJXS2fXxx+7X0e8SIUVxo3rv38NQ9FQbVEfgxx03Xz0syDxtazY5L/7OJsCadbi19t9Fx8SM6N16HFQ1DfrE3DVy63Mbk/S8Q+HsyKXTiH/33tC3cLUJcDm3/x0wvPf7/2lZcLAClYrgFITOQBEhN5gMREHiAxkQdITOQBEhN5gMREHiAxkQdITOQBEhN5gMREHiAxkQdITOQBEhN5gMREHiAxkQdITOQBEhN5gMREHiAxkQdITOQBEhN5gMREHiAxkQdITOQBEhN5gMREHiAxkQdITOQBEhN5gMREHiAxkQdITOQBEhN5gMREHiAxkQdITOQBEhN5gMREHiAxkQdITOQBEhN5gMREHiAxkQdITOQBEhN5gMREHiAxkQdITOQBEhN5gMREHiAxkQdITOQBEhN5gMREHiAxkQdITOQBEhN5gMREHiAxkQdITOQBEhN5gMREHiAxkQdITOQBEhN5gMREHiAxkQdITOQBEhN5gMREHiAxkQdI7GChbYdXSjmyWspKfD5aynOHZv8cnztPHpfyeOPjx/ulPFj7ePRw7Z8fFCA3kW9NxPvEyVKOvTj7iKDvx8lTP/9zxP/+WvBv3Szl3t1Z+OFpq0dngwFNOrD5Fz+98Pz3a195uVCfY8dLOXuulOMvbp3Sl+nuD7Pgf3tn9gIAMUj8159LeeUlPxONMsnX7vSbax9nZnHvW/xvxEdM9BH8q5dN91P3/oelHFobKs6+O/t5oDkm+VrF5H7pT7M197FE4L+56S/3VMWAET+DIe7nmOabZHdNbSLqN74u5S//O27gu9/LB78v5e//mP2FZ1riz74T03xM9TRH5GsSa+5//dswSzP7EbGPie7jT/q7H0Bd4kX96SHjnXPjDx7sm8jXIMJ54ZPZR80RfWfjRchf9Pw2T/GbmeabI/Jji2D+5evZFN+C+P3+/99m9wzIabspvvPGGX/2jRH5MXWBj33ILYn12bhnELt+yCWuJHea4ju7/fdUReTH0gW+5aWPS18IfTZn97Duvv4gnmm+FSI/hgyB7wh9HvHz+MYed1GZ5psh8mOIJwgz3byMG8ZHGlty4pfipupefy5N880Q+aFFEFtbg99NrNH/959tr2zZ+hS/zyuyC58W6ifyQ4r1zlZ20exXRCJCT5vm2RoZw4qH5Kon8kNZf3o0+R7juIR/+91CY+aZ4juxNu8KrmoiP5SYlKbwlyH+0ntYqi2LPOAUf9ZnvbDXTOSHEJe0b0xkB8qhjad3aUMsuSz6sxlLkKb5aon8EKa23ezEKTsvWvHxEl6Qu6OIqZLI9+1Zj4hnZh91/eJnc1mH4ZnmqyXyfZtq7Oyjrt8yfzZN89US+T5F6KZ8E/LVU4VK9XGFuZcjERicyPdp6nuI44aeS/g69XGF6Y1FqiTyfYkf+KnsqNlJfA88LFOfPu8TOYq4OiLfl1dPFtactGRTnb7vE7npXhWR78sJcVsXB5dZsqnH+wM8rOame1VEvi/ZDiGbVyzZrK4WKrCfo4QXZZqvhsj3IQJvl8HPHENch9jiONTPpWm+GiLfh8OHC5ss64Eb5rd+xszAJ6Ca5qsg8n0wuW5l6Wp8Y2xtjGne7qrRiXwfRG0rS1fjWuQo4UWZ5kcn8n2wm+SXhH48Yz6gFH/uHpAalcj34dciTyXGnOI7Di8blcj3wQ/0L7kZPY4/flFG5/CyUYk8ZHXiZD07m0zzoxF5yOrCp6UapvnRiDxkVOOb1TiKeBQi34cnjwtPefSoMKAaty46ingUIt+Hhw8LT3nkezKYmt9yMnb6mOYHJfJ9ELStHruyGVTtDyBdqmDHz4SIfB8sTWz14/3CQIY4SnhRDi8blMj34YGobXHf92MQQx4lvCjHHQxG5Ptgct3q3t3CAE43tN5tmh+MyPch1qDv/VDY4EWvfxH3DxrbuWKaH4TI9+Wu6XVdLF25Ed2/FrcmxjTvvZB7J/J9McnP3PV96F0Nh5DN6z8reio3KZHvS0TeMkUpt/6v0LOWHzCKF6i3HXfQJ5Hv0507ZdJiqcYLXb9anuI7sTbv8LLeiHyfblyb9hEH1/+n0LMLn5TmObysVyLfp9hl89VEQxc3W2/dLPQoblyeOFVScBRxb0S+b1Od5q9cLvQs0/EApvneiHzfpjjNm+L7V/MhZPMyzfdC5IcwtWneFN+/jA8SOYq4FyI/hJjm//BRmYSY4E3x/co4xXfe8cYiyybyQ/n2dinf3S6pxTKNKb5/2Y8DcBTxUon8kGKaz/yI/2cXHWHQt8xTfMfhZUsl8kOKZZvfnc+5Pn/1y/xXKmNbP4RsIod6ObxsaUR+aPEUaEy8mcQavGWa/rV0lPCiTPNLI/JjiCheTRLFeNGayk3lMbV4lPCiTPNLIfJjufJl+6GPQ9h++1ZhAFPcWmiaXwqRH1OE/vNGl27iaiQCP+WzeYaS4RCyeV36U2ExIj+269dKef21tnalxE1WSzTDmfIDQvECd7qR962tlMjXINa1Yyqu/VjemNrfO+8m65CmPMV3LnzquIMFiHwtYpL/zWv1rtPH+nv8/myTHJbH/B1etiCRr02s07/yUj1HA8SLT0zvcaXhQadhxY3HqU/xHYeXzU3kaxQxjTXvCOtY7xUbSzNxVWF6H0+GNwRZFtP83A5s/sVPLzz//dpXXi7UZX2ie3P2MEzf4kXl2zulfHPTzpkxxc1GO0u2iifG4yrXz+W+iHxL4iZcF/z4vCxx5RAHqEXcx7pyYKu//8NpjNv56lopf0z2xHjPRL5VsT55fONhkdWjs4+9rFnGFBRRjx09d9eCfu+utXZITOSzielvuwkwQh6Xuy51YVIOFnKJmJvMgQ121wAkJvIAiYk8QGIiD5CYyAMkJvIAiYk8QGIiD5CYyAMkJvIAiYk8QGIiD5CYyAMkJvIAiYk8QGIiD5CYyAMkJvIAiYk8QGIiD5CYyAMkJvIAiYk8QGIiD5CYyAMkJvIAiYk8QGIiD5CYyAMkJvIAiYk8QGIiD5CYyAMkJvIAiYk8QGIiD5CYyAMkJvIAiYk8QGIiD5CYyAMkJvIAiYk8QGIiD5CYyAMkJvIAiYk8QGIiD5CYyAMkJvIAiYk8QGIiD5CYyAMkJvIAiYk8QGIiD5CYyAMkJvIAiYk8QGIiD5CYyAMkJvIAiYk8QGIiD5CYyAMkJvIAiYk8QGIiD5CYyAMkJvIAiYk8QGIHt/zqV+Wfa/95oACQwr8AEGR/tYeLYswAAAAASUVORK5CYII=;imageBackground=none;fillStyle=cross-hatch;opacity=50;" vertex="1" parent="1">
          <mxGeometry x="285" y="510" width="60" height="60" as="geometry" />
        </mxCell>
        <mxCell id="82siV1Ass7THwQfGUrbe-26" style="edgeStyle=orthogonalEdgeStyle;rounded=0;orthogonalLoop=1;jettySize=auto;html=1;exitX=1;exitY=0.5;exitDx=0;exitDy=0;entryX=0;entryY=0.5;entryDx=0;entryDy=0;dashed=1;" edge="1" parent="1" source="82siV1Ass7THwQfGUrbe-9" target="82siV1Ass7THwQfGUrbe-8">
          <mxGeometry relative="1" as="geometry" />
        </mxCell>
        <mxCell id="82siV1Ass7THwQfGUrbe-9" value="" style="shape=image;verticalLabelPosition=bottom;verticalAlign=top;imageAspect=0;aspect=fixed;image=data:image/png,iVBORw0KGgoAAAANSUhEUgAAAXkAAAF5CAYAAAB6A1o9AAAACXBIWXMAACxLAAAsSwGlPZapAAAAAXNSR0IArs4c6QAAAARnQU1BAACxjwv8YQUAABCnSURBVHgB7d2xjlXXucDxRURr0l/mSm4sMTwAuLHkawONixibxkWMTYPk2HIaSzFXdoPsIDmFEdwrpeEaUvgWXHNTpAE7LtIYujTgB4AXgAdw5pszW57BM8zMOWfvvda3fz9pMmZiKWQY/ufba6+9zoGyyU8vPP99OVBeLgCk8KsCQFoiD5CYyAMkJvIAiYk8QGIiD5CYyAMkJvIAiYk8QGIiD5CYyAMkJvIAiYk8QGIiD5CYyAMkJvIAiYk8QGIiD5CYyAMkJvIAiYk8QGIiD5CYyAMkJvIAiYk8QGIiD5CYyAMkJvIAiYk8QGIiD5CYyAMkJvIAiYk8QGIiD5CYyAMkJvIAiYk8QGIiD5CYyAMkJvIAiYk8QGIiD5CYyAMkJvIAiYk8QGIiD5CYyAMkJvIAiYk8QGIiD5CYyAMkJvIAiYk8QGIiD5CYyAMkJvIAiYk8QGIiD5CYyAMkJvIAiYk8QGIiD5CYyAMkJvIAiYk8QGIiD5CYyAMkJvIAiYk8QGIiD5CYyAMkJvIAiYk8QGIiD5CYyAMkJvIAiYl8ZsdeLMC0iXxml75YC/3xAkyXyGd1+s1SDq+U8sHvCzBdIp9VF/dYsjlytADTJPIZRdhjiu/EVA9Mkshn9HTU3zhTynOHCjA9Ip9NTPAR9c0OrQX+7LsFmJ6DhVze/3D7r589V8rVy4VGxIv1ja8Lmzx6WMrbbxX2R+QziTAc32FvfEzzr54s5bs7hUasrBQ2OVCYg+WaTGJP/OFnhOGdcwWYFpHPZLc98bHrxsNRMCkin0X38NNuPBwFkyLyWZw+s7d/L6Z52ylhMkQ+g2fdcN2O7ZQwGSKfwU7bJncS2ylN8zAJIt+67R5+2o2Ho2AyRL5188Z6vy8MQJNEvnUnTpW5xBWA7ZSQnsi3bK/bJndiOyWkJ/ItWzTSHo6C9ES+VU+fGT+v09bmITORb9WydsfEmr7tlJCWyLcoJvh5b7g+zXZKSE3kW7Tfh5924+EoSEvkWzPPw0+7iWne+8BCSiLfmr52w5xc0vIPUBWRb01fe9ttp4SURL4liz78tBsPR0E63uO1ZhH0w4dnn9d3wfT89n0xzcdN3XjD5Ph4/Hjt86NSnjwuQJtEfgyxkyWifWR19nk95iuzr69s+jyG7ab5iPzDLvobLwDd155svBDE14DqiPyyrcf6udnnLthdxOPj14fa264Yv9/Vo7v/ew83XwFsvAA8uO+FAEYk8vsV03cELybwf9tYRolfjzl912JlZffvwXZXBd3HgweWhmDJRH6/njyZLWkcnnjQ57XTVcHVL0u5d7cAy2V3zX7FxPnbtyw9LEtM7h9/VMqVywVYPpGfRwT+9ddK+fF+YQHdC+Y3NwvQD5GfV6wp/2Yt9DeuFebQBf6BF0rok8gv6rOLa+vJlhr2JcIeL5CWvKB3Ir8MV9ZuGn5+sbAHt27OJni7aGAQIr8s16/N1unFa2exg+YPH/kewYBEfpksQ+wsrnTsoIHBifyy2WK5VUzt8f247gY1jEHk+9Btsfzudpm07gXv3g8FGIfI9yW2WL53fro7b2yRhCqIfN9i583UQh+Tu3sTUAWRH8KVCe0qibV3WyShGiI/lG5/eObp9qrnBaA2Ij+kWJ/OGnqHjEGVRH5o3Q3JLIebxbJM7CRyyBhUSeTHEKHPcLhZ9//DDhqolsiPqeXDzTIvPUEiIj+2Fg83m8JNZEhC5GsQ2w5/d76NbYcOGYOmiHwtvr1d/83LeIrXDhpoisjX5MjRUrVDh7yBOTRG5Gty/MVSvWPHC9AOka/FsQYCH2q/2gC2EPlarDYSz6MiDy0R+Vq0sgwSk/xzhwrQBpGvxUojNzTdfIWmiHwNIpwtrXW7+QrNEPkatBbNVu4fACJfhVZ21nRa2OoJrBP5GrS2LTHW5N18hSaIfA1a3JbY2tUHTJTIj2210S2Jbr5CE0R+bEdWS5M8FAVNEPmx9bns0edxwI43gCaI/Nj6mIgj7vGOU//x0uzs9z7e3KO1vf0wUSI/pj5Cee+H2fuuxjtORezjXZxeeamftxm0Lg/VE/kxLTPwMa3HW/Lt9LZ8Ef2I/a0lvjGJh6KgeiI/pmVMwt3STEzvMcU/S8Q/lm+WtYTjoSionsiPadGbrk8vzezVspZwPBQF1RP5Mc170zWm8PfO77w0s1fLWMLxUBRUTeTHMu9DUN3SzHe3y1IsuoTj5itUTeTHst+HoGJpJqbu/S7N7FVM86+/tv8lHA9FQdVEfix7XeZY1tLMXjx+/PMSzl6vFOyVh6odLIxjLxNwTNVfXev3ydXtdC8sp8+U8sGHz34nqG6v/4/3C0sUfwbxYgsLEvkx7PYQVCzN9PWk6n7EEk5M9GfPlfL+hzv/e6urIt+Hsf/8ScFyzRh2CnxM7BH3IZZm9movSzh22EC1RH4M2+1IuX5tdtbMMp9IXaZuCWe7KwwPRUG1RH4MmyffWJqJXS2fXxx+7X0e8SIUVxo3rv38NQ9FQbVEfgxx03Xz0syDxtazY5L/7OJsCadbi19t9Fx8SM6N16HFQ1DfrE3DVy63Mbk/S8Q+HsyKXTiH/33tC3cLUJcDm3/x0wvPf7/2lZcLAClYrgFITOQBEhN5gMREHiAxkQdITOQBEhN5gMREHiAxkQdITOQBEhN5gMREHiAxkQdITOQBEhN5gMREHiAxkQdITOQBEhN5gMREHiAxkQdITOQBEhN5gMREHiAxkQdITOQBEhN5gMREHiAxkQdITOQBEhN5gMREHiAxkQdITOQBEhN5gMREHiAxkQdITOQBEhN5gMREHiAxkQdITOQBEhN5gMREHiAxkQdITOQBEhN5gMREHiAxkQdITOQBEhN5gMREHiAxkQdITOQBEhN5gMREHiAxkQdITOQBEhN5gMREHiAxkQdITOQBEhN5gMREHiAxkQdITOQBEhN5gMREHiAxkQdITOQBEhN5gMREHiAxkQdI7GChbYdXSjmyWspKfD5aynOHZv8cnztPHpfyeOPjx/ulPFj7ePRw7Z8fFCA3kW9NxPvEyVKOvTj7iKDvx8lTP/9zxP/+WvBv3Szl3t1Z+OFpq0dngwFNOrD5Fz+98Pz3a195uVCfY8dLOXuulOMvbp3Sl+nuD7Pgf3tn9gIAMUj8159LeeUlPxONMsnX7vSbax9nZnHvW/xvxEdM9BH8q5dN91P3/oelHFobKs6+O/t5oDkm+VrF5H7pT7M197FE4L+56S/3VMWAET+DIe7nmOabZHdNbSLqN74u5S//O27gu9/LB78v5e//mP2FZ1riz74T03xM9TRH5GsSa+5//dswSzP7EbGPie7jT/q7H0Bd4kX96SHjnXPjDx7sm8jXIMJ54ZPZR80RfWfjRchf9Pw2T/GbmeabI/Jji2D+5evZFN+C+P3+/99m9wzIabspvvPGGX/2jRH5MXWBj33ILYn12bhnELt+yCWuJHea4ju7/fdUReTH0gW+5aWPS18IfTZn97Duvv4gnmm+FSI/hgyB7wh9HvHz+MYed1GZ5psh8mOIJwgz3byMG8ZHGlty4pfipupefy5N880Q+aFFEFtbg99NrNH/959tr2zZ+hS/zyuyC58W6ifyQ4r1zlZ20exXRCJCT5vm2RoZw4qH5Kon8kNZf3o0+R7juIR/+91CY+aZ4juxNu8KrmoiP5SYlKbwlyH+0ntYqi2LPOAUf9ZnvbDXTOSHEJe0b0xkB8qhjad3aUMsuSz6sxlLkKb5aon8EKa23ezEKTsvWvHxEl6Qu6OIqZLI9+1Zj4hnZh91/eJnc1mH4ZnmqyXyfZtq7Oyjrt8yfzZN89US+T5F6KZ8E/LVU4VK9XGFuZcjERicyPdp6nuI44aeS/g69XGF6Y1FqiTyfYkf+KnsqNlJfA88LFOfPu8TOYq4OiLfl1dPFtactGRTnb7vE7npXhWR78sJcVsXB5dZsqnH+wM8rOame1VEvi/ZDiGbVyzZrK4WKrCfo4QXZZqvhsj3IQJvl8HPHENch9jiONTPpWm+GiLfh8OHC5ss64Eb5rd+xszAJ6Ca5qsg8n0wuW5l6Wp8Y2xtjGne7qrRiXwfRG0rS1fjWuQo4UWZ5kcn8n2wm+SXhH48Yz6gFH/uHpAalcj34dciTyXGnOI7Di8blcj3wQ/0L7kZPY4/flFG5/CyUYk8ZHXiZD07m0zzoxF5yOrCp6UapvnRiDxkVOOb1TiKeBQi34cnjwtPefSoMKAaty46ingUIt+Hhw8LT3nkezKYmt9yMnb6mOYHJfJ9ELStHruyGVTtDyBdqmDHz4SIfB8sTWz14/3CQIY4SnhRDi8blMj34YGobXHf92MQQx4lvCjHHQxG5Ptgct3q3t3CAE43tN5tmh+MyPch1qDv/VDY4EWvfxH3DxrbuWKaH4TI9+Wu6XVdLF25Ed2/FrcmxjTvvZB7J/J9McnP3PV96F0Nh5DN6z8reio3KZHvS0TeMkUpt/6v0LOWHzCKF6i3HXfQJ5Hv0507ZdJiqcYLXb9anuI7sTbv8LLeiHyfblyb9hEH1/+n0LMLn5TmObysVyLfp9hl89VEQxc3W2/dLPQoblyeOFVScBRxb0S+b1Od5q9cLvQs0/EApvneiHzfpjjNm+L7V/MhZPMyzfdC5IcwtWneFN+/jA8SOYq4FyI/hJjm//BRmYSY4E3x/co4xXfe8cYiyybyQ/n2dinf3S6pxTKNKb5/2Y8DcBTxUon8kGKaz/yI/2cXHWHQt8xTfMfhZUsl8kOKZZvfnc+5Pn/1y/xXKmNbP4RsIod6ObxsaUR+aPEUaEy8mcQavGWa/rV0lPCiTPNLI/JjiCheTRLFeNGayk3lMbV4lPCiTPNLIfJjufJl+6GPQ9h++1ZhAFPcWmiaXwqRH1OE/vNGl27iaiQCP+WzeYaS4RCyeV36U2ExIj+269dKef21tnalxE1WSzTDmfIDQvECd7qR962tlMjXINa1Yyqu/VjemNrfO+8m65CmPMV3LnzquIMFiHwtYpL/zWv1rtPH+nv8/myTHJbH/B1etiCRr02s07/yUj1HA8SLT0zvcaXhQadhxY3HqU/xHYeXzU3kaxQxjTXvCOtY7xUbSzNxVWF6H0+GNwRZFtP83A5s/sVPLzz//dpXXi7UZX2ie3P2MEzf4kXl2zulfHPTzpkxxc1GO0u2iifG4yrXz+W+iHxL4iZcF/z4vCxx5RAHqEXcx7pyYKu//8NpjNv56lopf0z2xHjPRL5VsT55fONhkdWjs4+9rFnGFBRRjx09d9eCfu+utXZITOSzielvuwkwQh6Xuy51YVIOFnKJmJvMgQ121wAkJvIAiYk8QGIiD5CYyAMkJvIAiYk8QGIiD5CYyAMkJvIAiYk8QGIiD5CYyAMkJvIAiYk8QGIiD5CYyAMkJvIAiYk8QGIiD5CYyAMkJvIAiYk8QGIiD5CYyAMkJvIAiYk8QGIiD5CYyAMkJvIAiYk8QGIiD5CYyAMkJvIAiYk8QGIiD5CYyAMkJvIAiYk8QGIiD5CYyAMkJvIAiYk8QGIiD5CYyAMkJvIAiYk8QGIiD5CYyAMkJvIAiYk8QGIiD5CYyAMkJvIAiYk8QGIiD5CYyAMkJvIAiYk8QGIiD5CYyAMkJvIAiYk8QGIiD5CYyAMkJvIAiYk8QGIiD5CYyAMkJvIAiYk8QGIHt/zqV+Wfa/95oACQwr8AEGR/tYeLYswAAAAASUVORK5CYII=;imageBackground=none;fillStyle=cross-hatch;" vertex="1" parent="1">
          <mxGeometry x="95" y="510" width="60" height="60" as="geometry" />
        </mxCell>
        <mxCell id="82siV1Ass7THwQfGUrbe-23" value="" style="rounded=1;whiteSpace=wrap;html=1;" vertex="1" parent="1">
          <mxGeometry x="60" y="610" width="500" height="100" as="geometry" />
        </mxCell>
        <mxCell id="82siV1Ass7THwQfGUrbe-11" value="" style="shape=image;verticalLabelPosition=bottom;verticalAlign=top;imageAspect=0;aspect=fixed;image=data:image/png,iVBORw0KGgoAAAANSUhEUgAAAXkAAAF5CAYAAAB6A1o9AAAACXBIWXMAACxLAAAsSwGlPZapAAAAAXNSR0IArs4c6QAAAARnQU1BAACxjwv8YQUAABCnSURBVHgB7d2xjlXXucDxRURr0l/mSm4sMTwAuLHkawONixibxkWMTYPk2HIaSzFXdoPsIDmFEdwrpeEaUvgWXHNTpAE7LtIYujTgB4AXgAdw5pszW57BM8zMOWfvvda3fz9pMmZiKWQY/ufba6+9zoGyyU8vPP99OVBeLgCk8KsCQFoiD5CYyAMkJvIAiYk8QGIiD5CYyAMkJvIAiYk8QGIiD5CYyAMkJvIAiYk8QGIiD5CYyAMkJvIAiYk8QGIiD5CYyAMkJvIAiYk8QGIiD5CYyAMkJvIAiYk8QGIiD5CYyAMkJvIAiYk8QGIiD5CYyAMkJvIAiYk8QGIiD5CYyAMkJvIAiYk8QGIiD5CYyAMkJvIAiYk8QGIiD5CYyAMkJvIAiYk8QGIiD5CYyAMkJvIAiYk8QGIiD5CYyAMkJvIAiYk8QGIiD5CYyAMkJvIAiYk8QGIiD5CYyAMkJvIAiYk8QGIiD5CYyAMkJvIAiYk8QGIiD5CYyAMkJvIAiYk8QGIiD5CYyAMkJvIAiYk8QGIiD5CYyAMkJvIAiYl8ZsdeLMC0iXxml75YC/3xAkyXyGd1+s1SDq+U8sHvCzBdIp9VF/dYsjlytADTJPIZRdhjiu/EVA9Mkshn9HTU3zhTynOHCjA9Ip9NTPAR9c0OrQX+7LsFmJ6DhVze/3D7r589V8rVy4VGxIv1ja8Lmzx6WMrbbxX2R+QziTAc32FvfEzzr54s5bs7hUasrBQ2OVCYg+WaTGJP/OFnhOGdcwWYFpHPZLc98bHrxsNRMCkin0X38NNuPBwFkyLyWZw+s7d/L6Z52ylhMkQ+g2fdcN2O7ZQwGSKfwU7bJncS2ylN8zAJIt+67R5+2o2Ho2AyRL5188Z6vy8MQJNEvnUnTpW5xBWA7ZSQnsi3bK/bJndiOyWkJ/ItWzTSHo6C9ES+VU+fGT+v09bmITORb9WydsfEmr7tlJCWyLcoJvh5b7g+zXZKSE3kW7Tfh5924+EoSEvkWzPPw0+7iWne+8BCSiLfmr52w5xc0vIPUBWRb01fe9ttp4SURL4liz78tBsPR0E63uO1ZhH0w4dnn9d3wfT89n0xzcdN3XjD5Ph4/Hjt86NSnjwuQJtEfgyxkyWifWR19nk95iuzr69s+jyG7ab5iPzDLvobLwDd155svBDE14DqiPyyrcf6udnnLthdxOPj14fa264Yv9/Vo7v/ew83XwFsvAA8uO+FAEYk8vsV03cELybwf9tYRolfjzl912JlZffvwXZXBd3HgweWhmDJRH6/njyZLWkcnnjQ57XTVcHVL0u5d7cAy2V3zX7FxPnbtyw9LEtM7h9/VMqVywVYPpGfRwT+9ddK+fF+YQHdC+Y3NwvQD5GfV6wp/2Yt9DeuFebQBf6BF0rok8gv6rOLa+vJlhr2JcIeL5CWvKB3Ir8MV9ZuGn5+sbAHt27OJni7aGAQIr8s16/N1unFa2exg+YPH/kewYBEfpksQ+wsrnTsoIHBifyy2WK5VUzt8f247gY1jEHk+9Btsfzudpm07gXv3g8FGIfI9yW2WL53fro7b2yRhCqIfN9i583UQh+Tu3sTUAWRH8KVCe0qibV3WyShGiI/lG5/eObp9qrnBaA2Ij+kWJ/OGnqHjEGVRH5o3Q3JLIebxbJM7CRyyBhUSeTHEKHPcLhZ9//DDhqolsiPqeXDzTIvPUEiIj+2Fg83m8JNZEhC5GsQ2w5/d76NbYcOGYOmiHwtvr1d/83LeIrXDhpoisjX5MjRUrVDh7yBOTRG5Gty/MVSvWPHC9AOka/FsQYCH2q/2gC2EPlarDYSz6MiDy0R+Vq0sgwSk/xzhwrQBpGvxUojNzTdfIWmiHwNIpwtrXW7+QrNEPkatBbNVu4fACJfhVZ21nRa2OoJrBP5GrS2LTHW5N18hSaIfA1a3JbY2tUHTJTIj2210S2Jbr5CE0R+bEdWS5M8FAVNEPmx9bns0edxwI43gCaI/Nj6mIgj7vGOU//x0uzs9z7e3KO1vf0wUSI/pj5Cee+H2fuuxjtORezjXZxeeamftxm0Lg/VE/kxLTPwMa3HW/Lt9LZ8Ef2I/a0lvjGJh6KgeiI/pmVMwt3STEzvMcU/S8Q/lm+WtYTjoSionsiPadGbrk8vzezVspZwPBQF1RP5Mc170zWm8PfO77w0s1fLWMLxUBRUTeTHMu9DUN3SzHe3y1IsuoTj5itUTeTHst+HoGJpJqbu/S7N7FVM86+/tv8lHA9FQdVEfix7XeZY1tLMXjx+/PMSzl6vFOyVh6odLIxjLxNwTNVfXev3ydXtdC8sp8+U8sGHz34nqG6v/4/3C0sUfwbxYgsLEvkx7PYQVCzN9PWk6n7EEk5M9GfPlfL+hzv/e6urIt+Hsf/8ScFyzRh2CnxM7BH3IZZm9movSzh22EC1RH4M2+1IuX5tdtbMMp9IXaZuCWe7KwwPRUG1RH4MmyffWJqJXS2fXxx+7X0e8SIUVxo3rv38NQ9FQbVEfgxx03Xz0syDxtazY5L/7OJsCadbi19t9Fx8SM6N16HFQ1DfrE3DVy63Mbk/S8Q+HsyKXTiH/33tC3cLUJcDm3/x0wvPf7/2lZcLAClYrgFITOQBEhN5gMREHiAxkQdITOQBEhN5gMREHiAxkQdITOQBEhN5gMREHiAxkQdITOQBEhN5gMREHiAxkQdITOQBEhN5gMREHiAxkQdITOQBEhN5gMREHiAxkQdITOQBEhN5gMREHiAxkQdITOQBEhN5gMREHiAxkQdITOQBEhN5gMREHiAxkQdITOQBEhN5gMREHiAxkQdITOQBEhN5gMREHiAxkQdITOQBEhN5gMREHiAxkQdITOQBEhN5gMREHiAxkQdITOQBEhN5gMREHiAxkQdITOQBEhN5gMREHiAxkQdITOQBEhN5gMREHiAxkQdITOQBEhN5gMREHiAxkQdITOQBEhN5gMREHiAxkQdI7GChbYdXSjmyWspKfD5aynOHZv8cnztPHpfyeOPjx/ulPFj7ePRw7Z8fFCA3kW9NxPvEyVKOvTj7iKDvx8lTP/9zxP/+WvBv3Szl3t1Z+OFpq0dngwFNOrD5Fz+98Pz3a195uVCfY8dLOXuulOMvbp3Sl+nuD7Pgf3tn9gIAMUj8159LeeUlPxONMsnX7vSbax9nZnHvW/xvxEdM9BH8q5dN91P3/oelHFobKs6+O/t5oDkm+VrF5H7pT7M197FE4L+56S/3VMWAET+DIe7nmOabZHdNbSLqN74u5S//O27gu9/LB78v5e//mP2FZ1riz74T03xM9TRH5GsSa+5//dswSzP7EbGPie7jT/q7H0Bd4kX96SHjnXPjDx7sm8jXIMJ54ZPZR80RfWfjRchf9Pw2T/GbmeabI/Jji2D+5evZFN+C+P3+/99m9wzIabspvvPGGX/2jRH5MXWBj33ILYn12bhnELt+yCWuJHea4ju7/fdUReTH0gW+5aWPS18IfTZn97Duvv4gnmm+FSI/hgyB7wh9HvHz+MYed1GZ5psh8mOIJwgz3byMG8ZHGlty4pfipupefy5N880Q+aFFEFtbg99NrNH/959tr2zZ+hS/zyuyC58W6ifyQ4r1zlZ20exXRCJCT5vm2RoZw4qH5Kon8kNZf3o0+R7juIR/+91CY+aZ4juxNu8KrmoiP5SYlKbwlyH+0ntYqi2LPOAUf9ZnvbDXTOSHEJe0b0xkB8qhjad3aUMsuSz6sxlLkKb5aon8EKa23ezEKTsvWvHxEl6Qu6OIqZLI9+1Zj4hnZh91/eJnc1mH4ZnmqyXyfZtq7Oyjrt8yfzZN89US+T5F6KZ8E/LVU4VK9XGFuZcjERicyPdp6nuI44aeS/g69XGF6Y1FqiTyfYkf+KnsqNlJfA88LFOfPu8TOYq4OiLfl1dPFtactGRTnb7vE7npXhWR78sJcVsXB5dZsqnH+wM8rOame1VEvi/ZDiGbVyzZrK4WKrCfo4QXZZqvhsj3IQJvl8HPHENch9jiONTPpWm+GiLfh8OHC5ss64Eb5rd+xszAJ6Ca5qsg8n0wuW5l6Wp8Y2xtjGne7qrRiXwfRG0rS1fjWuQo4UWZ5kcn8n2wm+SXhH48Yz6gFH/uHpAalcj34dciTyXGnOI7Di8blcj3wQ/0L7kZPY4/flFG5/CyUYk8ZHXiZD07m0zzoxF5yOrCp6UapvnRiDxkVOOb1TiKeBQi34cnjwtPefSoMKAaty46ingUIt+Hhw8LT3nkezKYmt9yMnb6mOYHJfJ9ELStHruyGVTtDyBdqmDHz4SIfB8sTWz14/3CQIY4SnhRDi8blMj34YGobXHf92MQQx4lvCjHHQxG5Ptgct3q3t3CAE43tN5tmh+MyPch1qDv/VDY4EWvfxH3DxrbuWKaH4TI9+Wu6XVdLF25Ed2/FrcmxjTvvZB7J/J9McnP3PV96F0Nh5DN6z8reio3KZHvS0TeMkUpt/6v0LOWHzCKF6i3HXfQJ5Hv0507ZdJiqcYLXb9anuI7sTbv8LLeiHyfblyb9hEH1/+n0LMLn5TmObysVyLfp9hl89VEQxc3W2/dLPQoblyeOFVScBRxb0S+b1Od5q9cLvQs0/EApvneiHzfpjjNm+L7V/MhZPMyzfdC5IcwtWneFN+/jA8SOYq4FyI/hJjm//BRmYSY4E3x/co4xXfe8cYiyybyQ/n2dinf3S6pxTKNKb5/2Y8DcBTxUon8kGKaz/yI/2cXHWHQt8xTfMfhZUsl8kOKZZvfnc+5Pn/1y/xXKmNbP4RsIod6ObxsaUR+aPEUaEy8mcQavGWa/rV0lPCiTPNLI/JjiCheTRLFeNGayk3lMbV4lPCiTPNLIfJjufJl+6GPQ9h++1ZhAFPcWmiaXwqRH1OE/vNGl27iaiQCP+WzeYaS4RCyeV36U2ExIj+269dKef21tnalxE1WSzTDmfIDQvECd7qR962tlMjXINa1Yyqu/VjemNrfO+8m65CmPMV3LnzquIMFiHwtYpL/zWv1rtPH+nv8/myTHJbH/B1etiCRr02s07/yUj1HA8SLT0zvcaXhQadhxY3HqU/xHYeXzU3kaxQxjTXvCOtY7xUbSzNxVWF6H0+GNwRZFtP83A5s/sVPLzz//dpXXi7UZX2ie3P2MEzf4kXl2zulfHPTzpkxxc1GO0u2iifG4yrXz+W+iHxL4iZcF/z4vCxx5RAHqEXcx7pyYKu//8NpjNv56lopf0z2xHjPRL5VsT55fONhkdWjs4+9rFnGFBRRjx09d9eCfu+utXZITOSzielvuwkwQh6Xuy51YVIOFnKJmJvMgQ121wAkJvIAiYk8QGIiD5CYyAMkJvIAiYk8QGIiD5CYyAMkJvIAiYk8QGIiD5CYyAMkJvIAiYk8QGIiD5CYyAMkJvIAiYk8QGIiD5CYyAMkJvIAiYk8QGIiD5CYyAMkJvIAiYk8QGIiD5CYyAMkJvIAiYk8QGIiD5CYyAMkJvIAiYk8QGIiD5CYyAMkJvIAiYk8QGIiD5CYyAMkJvIAiYk8QGIiD5CYyAMkJvIAiYk8QGIiD5CYyAMkJvIAiYk8QGIiD5CYyAMkJvIAiYk8QGIiD5CYyAMkJvIAiYk8QGIiD5CYyAMkJvIAiYk8QGIiD5CYyAMkJvIAiYk8QGIiD5CYyAMkJvIAiYk8QGIHt/zqV+Wfa/95oACQwr8AEGR/tYeLYswAAAAASUVORK5CYII=;imageBackground=none;fillStyle=cross-hatch;" vertex="1" parent="1">
          <mxGeometry x="95" y="630" width="60" height="60" as="geometry" />
        </mxCell>
        <mxCell id="82siV1Ass7THwQfGUrbe-13" value="" style="shape=image;verticalLabelPosition=bottom;verticalAlign=top;imageAspect=0;aspect=fixed;image=data:image/png,iVBORw0KGgoAAAANSUhEUgAAAXkAAAF5CAYAAAB6A1o9AAAACXBIWXMAACxLAAAsSwGlPZapAAAAAXNSR0IArs4c6QAAAARnQU1BAACxjwv8YQUAABCnSURBVHgB7d2xjlXXucDxRURr0l/mSm4sMTwAuLHkawONixibxkWMTYPk2HIaSzFXdoPsIDmFEdwrpeEaUvgWXHNTpAE7LtIYujTgB4AXgAdw5pszW57BM8zMOWfvvda3fz9pMmZiKWQY/ufba6+9zoGyyU8vPP99OVBeLgCk8KsCQFoiD5CYyAMkJvIAiYk8QGIiD5CYyAMkJvIAiYk8QGIiD5CYyAMkJvIAiYk8QGIiD5CYyAMkJvIAiYk8QGIiD5CYyAMkJvIAiYk8QGIiD5CYyAMkJvIAiYk8QGIiD5CYyAMkJvIAiYk8QGIiD5CYyAMkJvIAiYk8QGIiD5CYyAMkJvIAiYk8QGIiD5CYyAMkJvIAiYk8QGIiD5CYyAMkJvIAiYk8QGIiD5CYyAMkJvIAiYk8QGIiD5CYyAMkJvIAiYk8QGIiD5CYyAMkJvIAiYk8QGIiD5CYyAMkJvIAiYk8QGIiD5CYyAMkJvIAiYk8QGIiD5CYyAMkJvIAiYk8QGIiD5CYyAMkJvIAiYk8QGIiD5CYyAMkJvIAiYl8ZsdeLMC0iXxml75YC/3xAkyXyGd1+s1SDq+U8sHvCzBdIp9VF/dYsjlytADTJPIZRdhjiu/EVA9Mkshn9HTU3zhTynOHCjA9Ip9NTPAR9c0OrQX+7LsFmJ6DhVze/3D7r589V8rVy4VGxIv1ja8Lmzx6WMrbbxX2R+QziTAc32FvfEzzr54s5bs7hUasrBQ2OVCYg+WaTGJP/OFnhOGdcwWYFpHPZLc98bHrxsNRMCkin0X38NNuPBwFkyLyWZw+s7d/L6Z52ylhMkQ+g2fdcN2O7ZQwGSKfwU7bJncS2ylN8zAJIt+67R5+2o2Ho2AyRL5188Z6vy8MQJNEvnUnTpW5xBWA7ZSQnsi3bK/bJndiOyWkJ/ItWzTSHo6C9ES+VU+fGT+v09bmITORb9WydsfEmr7tlJCWyLcoJvh5b7g+zXZKSE3kW7Tfh5924+EoSEvkWzPPw0+7iWne+8BCSiLfmr52w5xc0vIPUBWRb01fe9ttp4SURL4liz78tBsPR0E63uO1ZhH0w4dnn9d3wfT89n0xzcdN3XjD5Ph4/Hjt86NSnjwuQJtEfgyxkyWifWR19nk95iuzr69s+jyG7ab5iPzDLvobLwDd155svBDE14DqiPyyrcf6udnnLthdxOPj14fa264Yv9/Vo7v/ew83XwFsvAA8uO+FAEYk8vsV03cELybwf9tYRolfjzl912JlZffvwXZXBd3HgweWhmDJRH6/njyZLWkcnnjQ57XTVcHVL0u5d7cAy2V3zX7FxPnbtyw9LEtM7h9/VMqVywVYPpGfRwT+9ddK+fF+YQHdC+Y3NwvQD5GfV6wp/2Yt9DeuFebQBf6BF0rok8gv6rOLa+vJlhr2JcIeL5CWvKB3Ir8MV9ZuGn5+sbAHt27OJni7aGAQIr8s16/N1unFa2exg+YPH/kewYBEfpksQ+wsrnTsoIHBifyy2WK5VUzt8f247gY1jEHk+9Btsfzudpm07gXv3g8FGIfI9yW2WL53fro7b2yRhCqIfN9i583UQh+Tu3sTUAWRH8KVCe0qibV3WyShGiI/lG5/eObp9qrnBaA2Ij+kWJ/OGnqHjEGVRH5o3Q3JLIebxbJM7CRyyBhUSeTHEKHPcLhZ9//DDhqolsiPqeXDzTIvPUEiIj+2Fg83m8JNZEhC5GsQ2w5/d76NbYcOGYOmiHwtvr1d/83LeIrXDhpoisjX5MjRUrVDh7yBOTRG5Gty/MVSvWPHC9AOka/FsQYCH2q/2gC2EPlarDYSz6MiDy0R+Vq0sgwSk/xzhwrQBpGvxUojNzTdfIWmiHwNIpwtrXW7+QrNEPkatBbNVu4fACJfhVZ21nRa2OoJrBP5GrS2LTHW5N18hSaIfA1a3JbY2tUHTJTIj2210S2Jbr5CE0R+bEdWS5M8FAVNEPmx9bns0edxwI43gCaI/Nj6mIgj7vGOU//x0uzs9z7e3KO1vf0wUSI/pj5Cee+H2fuuxjtORezjXZxeeamftxm0Lg/VE/kxLTPwMa3HW/Lt9LZ8Ef2I/a0lvjGJh6KgeiI/pmVMwt3STEzvMcU/S8Q/lm+WtYTjoSionsiPadGbrk8vzezVspZwPBQF1RP5Mc170zWm8PfO77w0s1fLWMLxUBRUTeTHMu9DUN3SzHe3y1IsuoTj5itUTeTHst+HoGJpJqbu/S7N7FVM86+/tv8lHA9FQdVEfix7XeZY1tLMXjx+/PMSzl6vFOyVh6odLIxjLxNwTNVfXev3ydXtdC8sp8+U8sGHz34nqG6v/4/3C0sUfwbxYgsLEvkx7PYQVCzN9PWk6n7EEk5M9GfPlfL+hzv/e6urIt+Hsf/8ScFyzRh2CnxM7BH3IZZm9movSzh22EC1RH4M2+1IuX5tdtbMMp9IXaZuCWe7KwwPRUG1RH4MmyffWJqJXS2fXxx+7X0e8SIUVxo3rv38NQ9FQbVEfgxx03Xz0syDxtazY5L/7OJsCadbi19t9Fx8SM6N16HFQ1DfrE3DVy63Mbk/S8Q+HsyKXTiH/33tC3cLUJcDm3/x0wvPf7/2lZcLAClYrgFITOQBEhN5gMREHiAxkQdITOQBEhN5gMREHiAxkQdITOQBEhN5gMREHiAxkQdITOQBEhN5gMREHiAxkQdITOQBEhN5gMREHiAxkQdITOQBEhN5gMREHiAxkQdITOQBEhN5gMREHiAxkQdITOQBEhN5gMREHiAxkQdITOQBEhN5gMREHiAxkQdITOQBEhN5gMREHiAxkQdITOQBEhN5gMREHiAxkQdITOQBEhN5gMREHiAxkQdITOQBEhN5gMREHiAxkQdITOQBEhN5gMREHiAxkQdITOQBEhN5gMREHiAxkQdITOQBEhN5gMREHiAxkQdITOQBEhN5gMREHiAxkQdITOQBEhN5gMREHiAxkQdI7GChbYdXSjmyWspKfD5aynOHZv8cnztPHpfyeOPjx/ulPFj7ePRw7Z8fFCA3kW9NxPvEyVKOvTj7iKDvx8lTP/9zxP/+WvBv3Szl3t1Z+OFpq0dngwFNOrD5Fz+98Pz3a195uVCfY8dLOXuulOMvbp3Sl+nuD7Pgf3tn9gIAMUj8159LeeUlPxONMsnX7vSbax9nZnHvW/xvxEdM9BH8q5dN91P3/oelHFobKs6+O/t5oDkm+VrF5H7pT7M197FE4L+56S/3VMWAET+DIe7nmOabZHdNbSLqN74u5S//O27gu9/LB78v5e//mP2FZ1riz74T03xM9TRH5GsSa+5//dswSzP7EbGPie7jT/q7H0Bd4kX96SHjnXPjDx7sm8jXIMJ54ZPZR80RfWfjRchf9Pw2T/GbmeabI/Jji2D+5evZFN+C+P3+/99m9wzIabspvvPGGX/2jRH5MXWBj33ILYn12bhnELt+yCWuJHea4ju7/fdUReTH0gW+5aWPS18IfTZn97Duvv4gnmm+FSI/hgyB7wh9HvHz+MYed1GZ5psh8mOIJwgz3byMG8ZHGlty4pfipupefy5N880Q+aFFEFtbg99NrNH/959tr2zZ+hS/zyuyC58W6ifyQ4r1zlZ20exXRCJCT5vm2RoZw4qH5Kon8kNZf3o0+R7juIR/+91CY+aZ4juxNu8KrmoiP5SYlKbwlyH+0ntYqi2LPOAUf9ZnvbDXTOSHEJe0b0xkB8qhjad3aUMsuSz6sxlLkKb5aon8EKa23ezEKTsvWvHxEl6Qu6OIqZLI9+1Zj4hnZh91/eJnc1mH4ZnmqyXyfZtq7Oyjrt8yfzZN89US+T5F6KZ8E/LVU4VK9XGFuZcjERicyPdp6nuI44aeS/g69XGF6Y1FqiTyfYkf+KnsqNlJfA88LFOfPu8TOYq4OiLfl1dPFtactGRTnb7vE7npXhWR78sJcVsXB5dZsqnH+wM8rOame1VEvi/ZDiGbVyzZrK4WKrCfo4QXZZqvhsj3IQJvl8HPHENch9jiONTPpWm+GiLfh8OHC5ss64Eb5rd+xszAJ6Ca5qsg8n0wuW5l6Wp8Y2xtjGne7qrRiXwfRG0rS1fjWuQo4UWZ5kcn8n2wm+SXhH48Yz6gFH/uHpAalcj34dciTyXGnOI7Di8blcj3wQ/0L7kZPY4/flFG5/CyUYk8ZHXiZD07m0zzoxF5yOrCp6UapvnRiDxkVOOb1TiKeBQi34cnjwtPefSoMKAaty46ingUIt+Hhw8LT3nkezKYmt9yMnb6mOYHJfJ9ELStHruyGVTtDyBdqmDHz4SIfB8sTWz14/3CQIY4SnhRDi8blMj34YGobXHf92MQQx4lvCjHHQxG5Ptgct3q3t3CAE43tN5tmh+MyPch1qDv/VDY4EWvfxH3DxrbuWKaH4TI9+Wu6XVdLF25Ed2/FrcmxjTvvZB7J/J9McnP3PV96F0Nh5DN6z8reio3KZHvS0TeMkUpt/6v0LOWHzCKF6i3HXfQJ5Hv0507ZdJiqcYLXb9anuI7sTbv8LLeiHyfblyb9hEH1/+n0LMLn5TmObysVyLfp9hl89VEQxc3W2/dLPQoblyeOFVScBRxb0S+b1Od5q9cLvQs0/EApvneiHzfpjjNm+L7V/MhZPMyzfdC5IcwtWneFN+/jA8SOYq4FyI/hJjm//BRmYSY4E3x/co4xXfe8cYiyybyQ/n2dinf3S6pxTKNKb5/2Y8DcBTxUon8kGKaz/yI/2cXHWHQt8xTfMfhZUsl8kOKZZvfnc+5Pn/1y/xXKmNbP4RsIod6ObxsaUR+aPEUaEy8mcQavGWa/rV0lPCiTPNLI/JjiCheTRLFeNGayk3lMbV4lPCiTPNLIfJjufJl+6GPQ9h++1ZhAFPcWmiaXwqRH1OE/vNGl27iaiQCP+WzeYaS4RCyeV36U2ExIj+269dKef21tnalxE1WSzTDmfIDQvECd7qR962tlMjXINa1Yyqu/VjemNrfO+8m65CmPMV3LnzquIMFiHwtYpL/zWv1rtPH+nv8/myTHJbH/B1etiCRr02s07/yUj1HA8SLT0zvcaXhQadhxY3HqU/xHYeXzU3kaxQxjTXvCOtY7xUbSzNxVWF6H0+GNwRZFtP83A5s/sVPLzz//dpXXi7UZX2ie3P2MEzf4kXl2zulfHPTzpkxxc1GO0u2iifG4yrXz+W+iHxL4iZcF/z4vCxx5RAHqEXcx7pyYKu//8NpjNv56lopf0z2xHjPRL5VsT55fONhkdWjs4+9rFnGFBRRjx09d9eCfu+utXZITOSzielvuwkwQh6Xuy51YVIOFnKJmJvMgQ121wAkJvIAiYk8QGIiD5CYyAMkJvIAiYk8QGIiD5CYyAMkJvIAiYk8QGIiD5CYyAMkJvIAiYk8QGIiD5CYyAMkJvIAiYk8QGIiD5CYyAMkJvIAiYk8QGIiD5CYyAMkJvIAiYk8QGIiD5CYyAMkJvIAiYk8QGIiD5CYyAMkJvIAiYk8QGIiD5CYyAMkJvIAiYk8QGIiD5CYyAMkJvIAiYk8QGIiD5CYyAMkJvIAiYk8QGIiD5CYyAMkJvIAiYk8QGIiD5CYyAMkJvIAiYk8QGIiD5CYyAMkJvIAiYk8QGIiD5CYyAMkJvIAiYk8QGIiD5CYyAMkJvIAiYk8QGIiD5CYyAMkJvIAiYk8QGIHt/zqV+Wfa/95oACQwr8AEGR/tYeLYswAAAAASUVORK5CYII=;imageBackground=none;fillStyle=cross-hatch;" vertex="1" parent="1">
          <mxGeometry x="285" y="630" width="60" height="60" as="geometry" />
        </mxCell>
        <mxCell id="82siV1Ass7THwQfGUrbe-14" value="" style="shape=image;verticalLabelPosition=bottom;verticalAlign=top;imageAspect=0;aspect=fixed;image=data:image/png,iVBORw0KGgoAAAANSUhEUgAAAXkAAAF5CAYAAAB6A1o9AAAACXBIWXMAACxLAAAsSwGlPZapAAAAAXNSR0IArs4c6QAAAARnQU1BAACxjwv8YQUAABCnSURBVHgB7d2xjlXXucDxRURr0l/mSm4sMTwAuLHkawONixibxkWMTYPk2HIaSzFXdoPsIDmFEdwrpeEaUvgWXHNTpAE7LtIYujTgB4AXgAdw5pszW57BM8zMOWfvvda3fz9pMmZiKWQY/ufba6+9zoGyyU8vPP99OVBeLgCk8KsCQFoiD5CYyAMkJvIAiYk8QGIiD5CYyAMkJvIAiYk8QGIiD5CYyAMkJvIAiYk8QGIiD5CYyAMkJvIAiYk8QGIiD5CYyAMkJvIAiYk8QGIiD5CYyAMkJvIAiYk8QGIiD5CYyAMkJvIAiYk8QGIiD5CYyAMkJvIAiYk8QGIiD5CYyAMkJvIAiYk8QGIiD5CYyAMkJvIAiYk8QGIiD5CYyAMkJvIAiYk8QGIiD5CYyAMkJvIAiYk8QGIiD5CYyAMkJvIAiYk8QGIiD5CYyAMkJvIAiYk8QGIiD5CYyAMkJvIAiYk8QGIiD5CYyAMkJvIAiYk8QGIiD5CYyAMkJvIAiYk8QGIiD5CYyAMkJvIAiYk8QGIiD5CYyAMkJvIAiYl8ZsdeLMC0iXxml75YC/3xAkyXyGd1+s1SDq+U8sHvCzBdIp9VF/dYsjlytADTJPIZRdhjiu/EVA9Mkshn9HTU3zhTynOHCjA9Ip9NTPAR9c0OrQX+7LsFmJ6DhVze/3D7r589V8rVy4VGxIv1ja8Lmzx6WMrbbxX2R+QziTAc32FvfEzzr54s5bs7hUasrBQ2OVCYg+WaTGJP/OFnhOGdcwWYFpHPZLc98bHrxsNRMCkin0X38NNuPBwFkyLyWZw+s7d/L6Z52ylhMkQ+g2fdcN2O7ZQwGSKfwU7bJncS2ylN8zAJIt+67R5+2o2Ho2AyRL5188Z6vy8MQJNEvnUnTpW5xBWA7ZSQnsi3bK/bJndiOyWkJ/ItWzTSHo6C9ES+VU+fGT+v09bmITORb9WydsfEmr7tlJCWyLcoJvh5b7g+zXZKSE3kW7Tfh5924+EoSEvkWzPPw0+7iWne+8BCSiLfmr52w5xc0vIPUBWRb01fe9ttp4SURL4liz78tBsPR0E63uO1ZhH0w4dnn9d3wfT89n0xzcdN3XjD5Ph4/Hjt86NSnjwuQJtEfgyxkyWifWR19nk95iuzr69s+jyG7ab5iPzDLvobLwDd155svBDE14DqiPyyrcf6udnnLthdxOPj14fa264Yv9/Vo7v/ew83XwFsvAA8uO+FAEYk8vsV03cELybwf9tYRolfjzl912JlZffvwXZXBd3HgweWhmDJRH6/njyZLWkcnnjQ57XTVcHVL0u5d7cAy2V3zX7FxPnbtyw9LEtM7h9/VMqVywVYPpGfRwT+9ddK+fF+YQHdC+Y3NwvQD5GfV6wp/2Yt9DeuFebQBf6BF0rok8gv6rOLa+vJlhr2JcIeL5CWvKB3Ir8MV9ZuGn5+sbAHt27OJni7aGAQIr8s16/N1unFa2exg+YPH/kewYBEfpksQ+wsrnTsoIHBifyy2WK5VUzt8f247gY1jEHk+9Btsfzudpm07gXv3g8FGIfI9yW2WL53fro7b2yRhCqIfN9i583UQh+Tu3sTUAWRH8KVCe0qibV3WyShGiI/lG5/eObp9qrnBaA2Ij+kWJ/OGnqHjEGVRH5o3Q3JLIebxbJM7CRyyBhUSeTHEKHPcLhZ9//DDhqolsiPqeXDzTIvPUEiIj+2Fg83m8JNZEhC5GsQ2w5/d76NbYcOGYOmiHwtvr1d/83LeIrXDhpoisjX5MjRUrVDh7yBOTRG5Gty/MVSvWPHC9AOka/FsQYCH2q/2gC2EPlarDYSz6MiDy0R+Vq0sgwSk/xzhwrQBpGvxUojNzTdfIWmiHwNIpwtrXW7+QrNEPkatBbNVu4fACJfhVZ21nRa2OoJrBP5GrS2LTHW5N18hSaIfA1a3JbY2tUHTJTIj2210S2Jbr5CE0R+bEdWS5M8FAVNEPmx9bns0edxwI43gCaI/Nj6mIgj7vGOU//x0uzs9z7e3KO1vf0wUSI/pj5Cee+H2fuuxjtORezjXZxeeamftxm0Lg/VE/kxLTPwMa3HW/Lt9LZ8Ef2I/a0lvjGJh6KgeiI/pmVMwt3STEzvMcU/S8Q/lm+WtYTjoSionsiPadGbrk8vzezVspZwPBQF1RP5Mc170zWm8PfO77w0s1fLWMLxUBRUTeTHMu9DUN3SzHe3y1IsuoTj5itUTeTHst+HoGJpJqbu/S7N7FVM86+/tv8lHA9FQdVEfix7XeZY1tLMXjx+/PMSzl6vFOyVh6odLIxjLxNwTNVfXev3ydXtdC8sp8+U8sGHz34nqG6v/4/3C0sUfwbxYgsLEvkx7PYQVCzN9PWk6n7EEk5M9GfPlfL+hzv/e6urIt+Hsf/8ScFyzRh2CnxM7BH3IZZm9movSzh22EC1RH4M2+1IuX5tdtbMMp9IXaZuCWe7KwwPRUG1RH4MmyffWJqJXS2fXxx+7X0e8SIUVxo3rv38NQ9FQbVEfgxx03Xz0syDxtazY5L/7OJsCadbi19t9Fx8SM6N16HFQ1DfrE3DVy63Mbk/S8Q+HsyKXTiH/33tC3cLUJcDm3/x0wvPf7/2lZcLAClYrgFITOQBEhN5gMREHiAxkQdITOQBEhN5gMREHiAxkQdITOQBEhN5gMREHiAxkQdITOQBEhN5gMREHiAxkQdITOQBEhN5gMREHiAxkQdITOQBEhN5gMREHiAxkQdITOQBEhN5gMREHiAxkQdITOQBEhN5gMREHiAxkQdITOQBEhN5gMREHiAxkQdITOQBEhN5gMREHiAxkQdITOQBEhN5gMREHiAxkQdITOQBEhN5gMREHiAxkQdITOQBEhN5gMREHiAxkQdITOQBEhN5gMREHiAxkQdITOQBEhN5gMREHiAxkQdITOQBEhN5gMREHiAxkQdITOQBEhN5gMREHiAxkQdITOQBEhN5gMREHiAxkQdI7GChbYdXSjmyWspKfD5aynOHZv8cnztPHpfyeOPjx/ulPFj7ePRw7Z8fFCA3kW9NxPvEyVKOvTj7iKDvx8lTP/9zxP/+WvBv3Szl3t1Z+OFpq0dngwFNOrD5Fz+98Pz3a195uVCfY8dLOXuulOMvbp3Sl+nuD7Pgf3tn9gIAMUj8159LeeUlPxONMsnX7vSbax9nZnHvW/xvxEdM9BH8q5dN91P3/oelHFobKs6+O/t5oDkm+VrF5H7pT7M197FE4L+56S/3VMWAET+DIe7nmOabZHdNbSLqN74u5S//O27gu9/LB78v5e//mP2FZ1riz74T03xM9TRH5GsSa+5//dswSzP7EbGPie7jT/q7H0Bd4kX96SHjnXPjDx7sm8jXIMJ54ZPZR80RfWfjRchf9Pw2T/GbmeabI/Jji2D+5evZFN+C+P3+/99m9wzIabspvvPGGX/2jRH5MXWBj33ILYn12bhnELt+yCWuJHea4ju7/fdUReTH0gW+5aWPS18IfTZn97Duvv4gnmm+FSI/hgyB7wh9HvHz+MYed1GZ5psh8mOIJwgz3byMG8ZHGlty4pfipupefy5N880Q+aFFEFtbg99NrNH/959tr2zZ+hS/zyuyC58W6ifyQ4r1zlZ20exXRCJCT5vm2RoZw4qH5Kon8kNZf3o0+R7juIR/+91CY+aZ4juxNu8KrmoiP5SYlKbwlyH+0ntYqi2LPOAUf9ZnvbDXTOSHEJe0b0xkB8qhjad3aUMsuSz6sxlLkKb5aon8EKa23ezEKTsvWvHxEl6Qu6OIqZLI9+1Zj4hnZh91/eJnc1mH4ZnmqyXyfZtq7Oyjrt8yfzZN89US+T5F6KZ8E/LVU4VK9XGFuZcjERicyPdp6nuI44aeS/g69XGF6Y1FqiTyfYkf+KnsqNlJfA88LFOfPu8TOYq4OiLfl1dPFtactGRTnb7vE7npXhWR78sJcVsXB5dZsqnH+wM8rOame1VEvi/ZDiGbVyzZrK4WKrCfo4QXZZqvhsj3IQJvl8HPHENch9jiONTPpWm+GiLfh8OHC5ss64Eb5rd+xszAJ6Ca5qsg8n0wuW5l6Wp8Y2xtjGne7qrRiXwfRG0rS1fjWuQo4UWZ5kcn8n2wm+SXhH48Yz6gFH/uHpAalcj34dciTyXGnOI7Di8blcj3wQ/0L7kZPY4/flFG5/CyUYk8ZHXiZD07m0zzoxF5yOrCp6UapvnRiDxkVOOb1TiKeBQi34cnjwtPefSoMKAaty46ingUIt+Hhw8LT3nkezKYmt9yMnb6mOYHJfJ9ELStHruyGVTtDyBdqmDHz4SIfB8sTWz14/3CQIY4SnhRDi8blMj34YGobXHf92MQQx4lvCjHHQxG5Ptgct3q3t3CAE43tN5tmh+MyPch1qDv/VDY4EWvfxH3DxrbuWKaH4TI9+Wu6XVdLF25Ed2/FrcmxjTvvZB7J/J9McnP3PV96F0Nh5DN6z8reio3KZHvS0TeMkUpt/6v0LOWHzCKF6i3HXfQJ5Hv0507ZdJiqcYLXb9anuI7sTbv8LLeiHyfblyb9hEH1/+n0LMLn5TmObysVyLfp9hl89VEQxc3W2/dLPQoblyeOFVScBRxb0S+b1Od5q9cLvQs0/EApvneiHzfpjjNm+L7V/MhZPMyzfdC5IcwtWneFN+/jA8SOYq4FyI/hJjm//BRmYSY4E3x/co4xXfe8cYiyybyQ/n2dinf3S6pxTKNKb5/2Y8DcBTxUon8kGKaz/yI/2cXHWHQt8xTfMfhZUsl8kOKZZvfnc+5Pn/1y/xXKmNbP4RsIod6ObxsaUR+aPEUaEy8mcQavGWa/rV0lPCiTPNLI/JjiCheTRLFeNGayk3lMbV4lPCiTPNLIfJjufJl+6GPQ9h++1ZhAFPcWmiaXwqRH1OE/vNGl27iaiQCP+WzeYaS4RCyeV36U2ExIj+269dKef21tnalxE1WSzTDmfIDQvECd7qR962tlMjXINa1Yyqu/VjemNrfO+8m65CmPMV3LnzquIMFiHwtYpL/zWv1rtPH+nv8/myTHJbH/B1etiCRr02s07/yUj1HA8SLT0zvcaXhQadhxY3HqU/xHYeXzU3kaxQxjTXvCOtY7xUbSzNxVWF6H0+GNwRZFtP83A5s/sVPLzz//dpXXi7UZX2ie3P2MEzf4kXl2zulfHPTzpkxxc1GO0u2iifG4yrXz+W+iHxL4iZcF/z4vCxx5RAHqEXcx7pyYKu//8NpjNv56lopf0z2xHjPRL5VsT55fONhkdWjs4+9rFnGFBRRjx09d9eCfu+utXZITOSzielvuwkwQh6Xuy51YVIOFnKJmJvMgQ121wAkJvIAiYk8QGIiD5CYyAMkJvIAiYk8QGIiD5CYyAMkJvIAiYk8QGIiD5CYyAMkJvIAiYk8QGIiD5CYyAMkJvIAiYk8QGIiD5CYyAMkJvIAiYk8QGIiD5CYyAMkJvIAiYk8QGIiD5CYyAMkJvIAiYk8QGIiD5CYyAMkJvIAiYk8QGIiD5CYyAMkJvIAiYk8QGIiD5CYyAMkJvIAiYk8QGIiD5CYyAMkJvIAiYk8QGIiD5CYyAMkJvIAiYk8QGIiD5CYyAMkJvIAiYk8QGIiD5CYyAMkJvIAiYk8QGIiD5CYyAMkJvIAiYk8QGIiD5CYyAMkJvIAiYk8QGIiD5CYyAMkJvIAiYk8QGIHt/zqV+Wfa/95oACQwr8AEGR/tYeLYswAAAAASUVORK5CYII=;imageBackground=none;fillStyle=cross-hatch;" vertex="1" parent="1">
          <mxGeometry x="475" y="630" width="60" height="60" as="geometry" />
        </mxCell>
        <mxCell id="82siV1Ass7THwQfGUrbe-24" value="" style="rounded=1;whiteSpace=wrap;html=1;arcSize=9;" vertex="1" parent="1">
          <mxGeometry x="60" y="730" width="500" height="170" as="geometry" />
        </mxCell>
        <mxCell id="82siV1Ass7THwQfGUrbe-27" style="rounded=0;orthogonalLoop=1;jettySize=auto;html=1;exitX=1;exitY=0.5;exitDx=0;exitDy=0;entryX=0;entryY=0.5;entryDx=0;entryDy=0;dashed=1;" edge="1" parent="1" source="82siV1Ass7THwQfGUrbe-15" target="82siV1Ass7THwQfGUrbe-19">
          <mxGeometry relative="1" as="geometry" />
        </mxCell>
        <mxCell id="82siV1Ass7THwQfGUrbe-15" value="" style="shape=image;verticalLabelPosition=bottom;verticalAlign=top;imageAspect=0;aspect=fixed;image=data:image/png,iVBORw0KGgoAAAANSUhEUgAAAXkAAAF5CAYAAAB6A1o9AAAACXBIWXMAACxLAAAsSwGlPZapAAAAAXNSR0IArs4c6QAAAARnQU1BAACxjwv8YQUAABCnSURBVHgB7d2xjlXXucDxRURr0l/mSm4sMTwAuLHkawONixibxkWMTYPk2HIaSzFXdoPsIDmFEdwrpeEaUvgWXHNTpAE7LtIYujTgB4AXgAdw5pszW57BM8zMOWfvvda3fz9pMmZiKWQY/ufba6+9zoGyyU8vPP99OVBeLgCk8KsCQFoiD5CYyAMkJvIAiYk8QGIiD5CYyAMkJvIAiYk8QGIiD5CYyAMkJvIAiYk8QGIiD5CYyAMkJvIAiYk8QGIiD5CYyAMkJvIAiYk8QGIiD5CYyAMkJvIAiYk8QGIiD5CYyAMkJvIAiYk8QGIiD5CYyAMkJvIAiYk8QGIiD5CYyAMkJvIAiYk8QGIiD5CYyAMkJvIAiYk8QGIiD5CYyAMkJvIAiYk8QGIiD5CYyAMkJvIAiYk8QGIiD5CYyAMkJvIAiYk8QGIiD5CYyAMkJvIAiYk8QGIiD5CYyAMkJvIAiYk8QGIiD5CYyAMkJvIAiYk8QGIiD5CYyAMkJvIAiYk8QGIiD5CYyAMkJvIAiYk8QGIiD5CYyAMkJvIAiYl8ZsdeLMC0iXxml75YC/3xAkyXyGd1+s1SDq+U8sHvCzBdIp9VF/dYsjlytADTJPIZRdhjiu/EVA9Mkshn9HTU3zhTynOHCjA9Ip9NTPAR9c0OrQX+7LsFmJ6DhVze/3D7r589V8rVy4VGxIv1ja8Lmzx6WMrbbxX2R+QziTAc32FvfEzzr54s5bs7hUasrBQ2OVCYg+WaTGJP/OFnhOGdcwWYFpHPZLc98bHrxsNRMCkin0X38NNuPBwFkyLyWZw+s7d/L6Z52ylhMkQ+g2fdcN2O7ZQwGSKfwU7bJncS2ylN8zAJIt+67R5+2o2Ho2AyRL5188Z6vy8MQJNEvnUnTpW5xBWA7ZSQnsi3bK/bJndiOyWkJ/ItWzTSHo6C9ES+VU+fGT+v09bmITORb9WydsfEmr7tlJCWyLcoJvh5b7g+zXZKSE3kW7Tfh5924+EoSEvkWzPPw0+7iWne+8BCSiLfmr52w5xc0vIPUBWRb01fe9ttp4SURL4liz78tBsPR0E63uO1ZhH0w4dnn9d3wfT89n0xzcdN3XjD5Ph4/Hjt86NSnjwuQJtEfgyxkyWifWR19nk95iuzr69s+jyG7ab5iPzDLvobLwDd155svBDE14DqiPyyrcf6udnnLthdxOPj14fa264Yv9/Vo7v/ew83XwFsvAA8uO+FAEYk8vsV03cELybwf9tYRolfjzl912JlZffvwXZXBd3HgweWhmDJRH6/njyZLWkcnnjQ57XTVcHVL0u5d7cAy2V3zX7FxPnbtyw9LEtM7h9/VMqVywVYPpGfRwT+9ddK+fF+YQHdC+Y3NwvQD5GfV6wp/2Yt9DeuFebQBf6BF0rok8gv6rOLa+vJlhr2JcIeL5CWvKB3Ir8MV9ZuGn5+sbAHt27OJni7aGAQIr8s16/N1unFa2exg+YPH/kewYBEfpksQ+wsrnTsoIHBifyy2WK5VUzt8f247gY1jEHk+9Btsfzudpm07gXv3g8FGIfI9yW2WL53fro7b2yRhCqIfN9i583UQh+Tu3sTUAWRH8KVCe0qibV3WyShGiI/lG5/eObp9qrnBaA2Ij+kWJ/OGnqHjEGVRH5o3Q3JLIebxbJM7CRyyBhUSeTHEKHPcLhZ9//DDhqolsiPqeXDzTIvPUEiIj+2Fg83m8JNZEhC5GsQ2w5/d76NbYcOGYOmiHwtvr1d/83LeIrXDhpoisjX5MjRUrVDh7yBOTRG5Gty/MVSvWPHC9AOka/FsQYCH2q/2gC2EPlarDYSz6MiDy0R+Vq0sgwSk/xzhwrQBpGvxUojNzTdfIWmiHwNIpwtrXW7+QrNEPkatBbNVu4fACJfhVZ21nRa2OoJrBP5GrS2LTHW5N18hSaIfA1a3JbY2tUHTJTIj2210S2Jbr5CE0R+bEdWS5M8FAVNEPmx9bns0edxwI43gCaI/Nj6mIgj7vGOU//x0uzs9z7e3KO1vf0wUSI/pj5Cee+H2fuuxjtORezjXZxeeamftxm0Lg/VE/kxLTPwMa3HW/Lt9LZ8Ef2I/a0lvjGJh6KgeiI/pmVMwt3STEzvMcU/S8Q/lm+WtYTjoSionsiPadGbrk8vzezVspZwPBQF1RP5Mc170zWm8PfO77w0s1fLWMLxUBRUTeTHMu9DUN3SzHe3y1IsuoTj5itUTeTHst+HoGJpJqbu/S7N7FVM86+/tv8lHA9FQdVEfix7XeZY1tLMXjx+/PMSzl6vFOyVh6odLIxjLxNwTNVfXev3ydXtdC8sp8+U8sGHz34nqG6v/4/3C0sUfwbxYgsLEvkx7PYQVCzN9PWk6n7EEk5M9GfPlfL+hzv/e6urIt+Hsf/8ScFyzRh2CnxM7BH3IZZm9movSzh22EC1RH4M2+1IuX5tdtbMMp9IXaZuCWe7KwwPRUG1RH4MmyffWJqJXS2fXxx+7X0e8SIUVxo3rv38NQ9FQbVEfgxx03Xz0syDxtazY5L/7OJsCadbi19t9Fx8SM6N16HFQ1DfrE3DVy63Mbk/S8Q+HsyKXTiH/33tC3cLUJcDm3/x0wvPf7/2lZcLAClYrgFITOQBEhN5gMREHiAxkQdITOQBEhN5gMREHiAxkQdITOQBEhN5gMREHiAxkQdITOQBEhN5gMREHiAxkQdITOQBEhN5gMREHiAxkQdITOQBEhN5gMREHiAxkQdITOQBEhN5gMREHiAxkQdITOQBEhN5gMREHiAxkQdITOQBEhN5gMREHiAxkQdITOQBEhN5gMREHiAxkQdITOQBEhN5gMREHiAxkQdITOQBEhN5gMREHiAxkQdITOQBEhN5gMREHiAxkQdITOQBEhN5gMREHiAxkQdITOQBEhN5gMREHiAxkQdITOQBEhN5gMREHiAxkQdITOQBEhN5gMREHiAxkQdITOQBEhN5gMREHiAxkQdI7GChbYdXSjmyWspKfD5aynOHZv8cnztPHpfyeOPjx/ulPFj7ePRw7Z8fFCA3kW9NxPvEyVKOvTj7iKDvx8lTP/9zxP/+WvBv3Szl3t1Z+OFpq0dngwFNOrD5Fz+98Pz3a195uVCfY8dLOXuulOMvbp3Sl+nuD7Pgf3tn9gIAMUj8159LeeUlPxONMsnX7vSbax9nZnHvW/xvxEdM9BH8q5dN91P3/oelHFobKs6+O/t5oDkm+VrF5H7pT7M197FE4L+56S/3VMWAET+DIe7nmOabZHdNbSLqN74u5S//O27gu9/LB78v5e//mP2FZ1riz74T03xM9TRH5GsSa+5//dswSzP7EbGPie7jT/q7H0Bd4kX96SHjnXPjDx7sm8jXIMJ54ZPZR80RfWfjRchf9Pw2T/GbmeabI/Jji2D+5evZFN+C+P3+/99m9wzIabspvvPGGX/2jRH5MXWBj33ILYn12bhnELt+yCWuJHea4ju7/fdUReTH0gW+5aWPS18IfTZn97Duvv4gnmm+FSI/hgyB7wh9HvHz+MYed1GZ5psh8mOIJwgz3byMG8ZHGlty4pfipupefy5N880Q+aFFEFtbg99NrNH/959tr2zZ+hS/zyuyC58W6ifyQ4r1zlZ20exXRCJCT5vm2RoZw4qH5Kon8kNZf3o0+R7juIR/+91CY+aZ4juxNu8KrmoiP5SYlKbwlyH+0ntYqi2LPOAUf9ZnvbDXTOSHEJe0b0xkB8qhjad3aUMsuSz6sxlLkKb5aon8EKa23ezEKTsvWvHxEl6Qu6OIqZLI9+1Zj4hnZh91/eJnc1mH4ZnmqyXyfZtq7Oyjrt8yfzZN89US+T5F6KZ8E/LVU4VK9XGFuZcjERicyPdp6nuI44aeS/g69XGF6Y1FqiTyfYkf+KnsqNlJfA88LFOfPu8TOYq4OiLfl1dPFtactGRTnb7vE7npXhWR78sJcVsXB5dZsqnH+wM8rOame1VEvi/ZDiGbVyzZrK4WKrCfo4QXZZqvhsj3IQJvl8HPHENch9jiONTPpWm+GiLfh8OHC5ss64Eb5rd+xszAJ6Ca5qsg8n0wuW5l6Wp8Y2xtjGne7qrRiXwfRG0rS1fjWuQo4UWZ5kcn8n2wm+SXhH48Yz6gFH/uHpAalcj34dciTyXGnOI7Di8blcj3wQ/0L7kZPY4/flFG5/CyUYk8ZHXiZD07m0zzoxF5yOrCp6UapvnRiDxkVOOb1TiKeBQi34cnjwtPefSoMKAaty46ingUIt+Hhw8LT3nkezKYmt9yMnb6mOYHJfJ9ELStHruyGVTtDyBdqmDHz4SIfB8sTWz14/3CQIY4SnhRDi8blMj34YGobXHf92MQQx4lvCjHHQxG5Ptgct3q3t3CAE43tN5tmh+MyPch1qDv/VDY4EWvfxH3DxrbuWKaH4TI9+Wu6XVdLF25Ed2/FrcmxjTvvZB7J/J9McnP3PV96F0Nh5DN6z8reio3KZHvS0TeMkUpt/6v0LOWHzCKF6i3HXfQJ5Hv0507ZdJiqcYLXb9anuI7sTbv8LLeiHyfblyb9hEH1/+n0LMLn5TmObysVyLfp9hl89VEQxc3W2/dLPQoblyeOFVScBRxb0S+b1Od5q9cLvQs0/EApvneiHzfpjjNm+L7V/MhZPMyzfdC5IcwtWneFN+/jA8SOYq4FyI/hJjm//BRmYSY4E3x/co4xXfe8cYiyybyQ/n2dinf3S6pxTKNKb5/2Y8DcBTxUon8kGKaz/yI/2cXHWHQt8xTfMfhZUsl8kOKZZvfnc+5Pn/1y/xXKmNbP4RsIod6ObxsaUR+aPEUaEy8mcQavGWa/rV0lPCiTPNLI/JjiCheTRLFeNGayk3lMbV4lPCiTPNLIfJjufJl+6GPQ9h++1ZhAFPcWmiaXwqRH1OE/vNGl27iaiQCP+WzeYaS4RCyeV36U2ExIj+269dKef21tnalxE1WSzTDmfIDQvECd7qR962tlMjXINa1Yyqu/VjemNrfO+8m65CmPMV3LnzquIMFiHwtYpL/zWv1rtPH+nv8/myTHJbH/B1etiCRr02s07/yUj1HA8SLT0zvcaXhQadhxY3HqU/xHYeXzU3kaxQxjTXvCOtY7xUbSzNxVWF6H0+GNwRZFtP83A5s/sVPLzz//dpXXi7UZX2ie3P2MEzf4kXl2zulfHPTzpkxxc1GO0u2iifG4yrXz+W+iHxL4iZcF/z4vCxx5RAHqEXcx7pyYKu//8NpjNv56lopf0z2xHjPRL5VsT55fONhkdWjs4+9rFnGFBRRjx09d9eCfu+utXZITOSzielvuwkwQh6Xuy51YVIOFnKJmJvMgQ121wAkJvIAiYk8QGIiD5CYyAMkJvIAiYk8QGIiD5CYyAMkJvIAiYk8QGIiD5CYyAMkJvIAiYk8QGIiD5CYyAMkJvIAiYk8QGIiD5CYyAMkJvIAiYk8QGIiD5CYyAMkJvIAiYk8QGIiD5CYyAMkJvIAiYk8QGIiD5CYyAMkJvIAiYk8QGIiD5CYyAMkJvIAiYk8QGIiD5CYyAMkJvIAiYk8QGIiD5CYyAMkJvIAiYk8QGIiD5CYyAMkJvIAiYk8QGIiD5CYyAMkJvIAiYk8QGIiD5CYyAMkJvIAiYk8QGIiD5CYyAMkJvIAiYk8QGIiD5CYyAMkJvIAiYk8QGIiD5CYyAMkJvIAiYk8QGIHt/zqV+Wfa/95oACQwr8AEGR/tYeLYswAAAAASUVORK5CYII=;imageBackground=none;fillStyle=cross-hatch;" vertex="1" parent="1">
          <mxGeometry x="95" y="750" width="60" height="60" as="geometry" />
        </mxCell>
        <mxCell id="82siV1Ass7THwQfGUrbe-28" style="rounded=0;orthogonalLoop=1;jettySize=auto;html=1;exitX=1;exitY=0.5;exitDx=0;exitDy=0;entryX=0;entryY=0.5;entryDx=0;entryDy=0;dashed=1;" edge="1" parent="1" source="82siV1Ass7THwQfGUrbe-16" target="82siV1Ass7THwQfGUrbe-20">
          <mxGeometry relative="1" as="geometry" />
        </mxCell>
        <mxCell id="82siV1Ass7THwQfGUrbe-16" value="" style="shape=image;verticalLabelPosition=bottom;verticalAlign=top;imageAspect=0;aspect=fixed;image=data:image/png,iVBORw0KGgoAAAANSUhEUgAAAXkAAAF5CAYAAAB6A1o9AAAACXBIWXMAACxLAAAsSwGlPZapAAAAAXNSR0IArs4c6QAAAARnQU1BAACxjwv8YQUAABCnSURBVHgB7d2xjlXXucDxRURr0l/mSm4sMTwAuLHkawONixibxkWMTYPk2HIaSzFXdoPsIDmFEdwrpeEaUvgWXHNTpAE7LtIYujTgB4AXgAdw5pszW57BM8zMOWfvvda3fz9pMmZiKWQY/ufba6+9zoGyyU8vPP99OVBeLgCk8KsCQFoiD5CYyAMkJvIAiYk8QGIiD5CYyAMkJvIAiYk8QGIiD5CYyAMkJvIAiYk8QGIiD5CYyAMkJvIAiYk8QGIiD5CYyAMkJvIAiYk8QGIiD5CYyAMkJvIAiYk8QGIiD5CYyAMkJvIAiYk8QGIiD5CYyAMkJvIAiYk8QGIiD5CYyAMkJvIAiYk8QGIiD5CYyAMkJvIAiYk8QGIiD5CYyAMkJvIAiYk8QGIiD5CYyAMkJvIAiYk8QGIiD5CYyAMkJvIAiYk8QGIiD5CYyAMkJvIAiYk8QGIiD5CYyAMkJvIAiYk8QGIiD5CYyAMkJvIAiYk8QGIiD5CYyAMkJvIAiYk8QGIiD5CYyAMkJvIAiYk8QGIiD5CYyAMkJvIAiYl8ZsdeLMC0iXxml75YC/3xAkyXyGd1+s1SDq+U8sHvCzBdIp9VF/dYsjlytADTJPIZRdhjiu/EVA9Mkshn9HTU3zhTynOHCjA9Ip9NTPAR9c0OrQX+7LsFmJ6DhVze/3D7r589V8rVy4VGxIv1ja8Lmzx6WMrbbxX2R+QziTAc32FvfEzzr54s5bs7hUasrBQ2OVCYg+WaTGJP/OFnhOGdcwWYFpHPZLc98bHrxsNRMCkin0X38NNuPBwFkyLyWZw+s7d/L6Z52ylhMkQ+g2fdcN2O7ZQwGSKfwU7bJncS2ylN8zAJIt+67R5+2o2Ho2AyRL5188Z6vy8MQJNEvnUnTpW5xBWA7ZSQnsi3bK/bJndiOyWkJ/ItWzTSHo6C9ES+VU+fGT+v09bmITORb9WydsfEmr7tlJCWyLcoJvh5b7g+zXZKSE3kW7Tfh5924+EoSEvkWzPPw0+7iWne+8BCSiLfmr52w5xc0vIPUBWRb01fe9ttp4SURL4liz78tBsPR0E63uO1ZhH0w4dnn9d3wfT89n0xzcdN3XjD5Ph4/Hjt86NSnjwuQJtEfgyxkyWifWR19nk95iuzr69s+jyG7ab5iPzDLvobLwDd155svBDE14DqiPyyrcf6udnnLthdxOPj14fa264Yv9/Vo7v/ew83XwFsvAA8uO+FAEYk8vsV03cELybwf9tYRolfjzl912JlZffvwXZXBd3HgweWhmDJRH6/njyZLWkcnnjQ57XTVcHVL0u5d7cAy2V3zX7FxPnbtyw9LEtM7h9/VMqVywVYPpGfRwT+9ddK+fF+YQHdC+Y3NwvQD5GfV6wp/2Yt9DeuFebQBf6BF0rok8gv6rOLa+vJlhr2JcIeL5CWvKB3Ir8MV9ZuGn5+sbAHt27OJni7aGAQIr8s16/N1unFa2exg+YPH/kewYBEfpksQ+wsrnTsoIHBifyy2WK5VUzt8f247gY1jEHk+9Btsfzudpm07gXv3g8FGIfI9yW2WL53fro7b2yRhCqIfN9i583UQh+Tu3sTUAWRH8KVCe0qibV3WyShGiI/lG5/eObp9qrnBaA2Ij+kWJ/OGnqHjEGVRH5o3Q3JLIebxbJM7CRyyBhUSeTHEKHPcLhZ9//DDhqolsiPqeXDzTIvPUEiIj+2Fg83m8JNZEhC5GsQ2w5/d76NbYcOGYOmiHwtvr1d/83LeIrXDhpoisjX5MjRUrVDh7yBOTRG5Gty/MVSvWPHC9AOka/FsQYCH2q/2gC2EPlarDYSz6MiDy0R+Vq0sgwSk/xzhwrQBpGvxUojNzTdfIWmiHwNIpwtrXW7+QrNEPkatBbNVu4fACJfhVZ21nRa2OoJrBP5GrS2LTHW5N18hSaIfA1a3JbY2tUHTJTIj2210S2Jbr5CE0R+bEdWS5M8FAVNEPmx9bns0edxwI43gCaI/Nj6mIgj7vGOU//x0uzs9z7e3KO1vf0wUSI/pj5Cee+H2fuuxjtORezjXZxeeamftxm0Lg/VE/kxLTPwMa3HW/Lt9LZ8Ef2I/a0lvjGJh6KgeiI/pmVMwt3STEzvMcU/S8Q/lm+WtYTjoSionsiPadGbrk8vzezVspZwPBQF1RP5Mc170zWm8PfO77w0s1fLWMLxUBRUTeTHMu9DUN3SzHe3y1IsuoTj5itUTeTHst+HoGJpJqbu/S7N7FVM86+/tv8lHA9FQdVEfix7XeZY1tLMXjx+/PMSzl6vFOyVh6odLIxjLxNwTNVfXev3ydXtdC8sp8+U8sGHz34nqG6v/4/3C0sUfwbxYgsLEvkx7PYQVCzN9PWk6n7EEk5M9GfPlfL+hzv/e6urIt+Hsf/8ScFyzRh2CnxM7BH3IZZm9movSzh22EC1RH4M2+1IuX5tdtbMMp9IXaZuCWe7KwwPRUG1RH4MmyffWJqJXS2fXxx+7X0e8SIUVxo3rv38NQ9FQbVEfgxx03Xz0syDxtazY5L/7OJsCadbi19t9Fx8SM6N16HFQ1DfrE3DVy63Mbk/S8Q+HsyKXTiH/33tC3cLUJcDm3/x0wvPf7/2lZcLAClYrgFITOQBEhN5gMREHiAxkQdITOQBEhN5gMREHiAxkQdITOQBEhN5gMREHiAxkQdITOQBEhN5gMREHiAxkQdITOQBEhN5gMREHiAxkQdITOQBEhN5gMREHiAxkQdITOQBEhN5gMREHiAxkQdITOQBEhN5gMREHiAxkQdITOQBEhN5gMREHiAxkQdITOQBEhN5gMREHiAxkQdITOQBEhN5gMREHiAxkQdITOQBEhN5gMREHiAxkQdITOQBEhN5gMREHiAxkQdITOQBEhN5gMREHiAxkQdITOQBEhN5gMREHiAxkQdITOQBEhN5gMREHiAxkQdITOQBEhN5gMREHiAxkQdITOQBEhN5gMREHiAxkQdI7GChbYdXSjmyWspKfD5aynOHZv8cnztPHpfyeOPjx/ulPFj7ePRw7Z8fFCA3kW9NxPvEyVKOvTj7iKDvx8lTP/9zxP/+WvBv3Szl3t1Z+OFpq0dngwFNOrD5Fz+98Pz3a195uVCfY8dLOXuulOMvbp3Sl+nuD7Pgf3tn9gIAMUj8159LeeUlPxONMsnX7vSbax9nZnHvW/xvxEdM9BH8q5dN91P3/oelHFobKs6+O/t5oDkm+VrF5H7pT7M197FE4L+56S/3VMWAET+DIe7nmOabZHdNbSLqN74u5S//O27gu9/LB78v5e//mP2FZ1riz74T03xM9TRH5GsSa+5//dswSzP7EbGPie7jT/q7H0Bd4kX96SHjnXPjDx7sm8jXIMJ54ZPZR80RfWfjRchf9Pw2T/GbmeabI/Jji2D+5evZFN+C+P3+/99m9wzIabspvvPGGX/2jRH5MXWBj33ILYn12bhnELt+yCWuJHea4ju7/fdUReTH0gW+5aWPS18IfTZn97Duvv4gnmm+FSI/hgyB7wh9HvHz+MYed1GZ5psh8mOIJwgz3byMG8ZHGlty4pfipupefy5N880Q+aFFEFtbg99NrNH/959tr2zZ+hS/zyuyC58W6ifyQ4r1zlZ20exXRCJCT5vm2RoZw4qH5Kon8kNZf3o0+R7juIR/+91CY+aZ4juxNu8KrmoiP5SYlKbwlyH+0ntYqi2LPOAUf9ZnvbDXTOSHEJe0b0xkB8qhjad3aUMsuSz6sxlLkKb5aon8EKa23ezEKTsvWvHxEl6Qu6OIqZLI9+1Zj4hnZh91/eJnc1mH4ZnmqyXyfZtq7Oyjrt8yfzZN89US+T5F6KZ8E/LVU4VK9XGFuZcjERicyPdp6nuI44aeS/g69XGF6Y1FqiTyfYkf+KnsqNlJfA88LFOfPu8TOYq4OiLfl1dPFtactGRTnb7vE7npXhWR78sJcVsXB5dZsqnH+wM8rOame1VEvi/ZDiGbVyzZrK4WKrCfo4QXZZqvhsj3IQJvl8HPHENch9jiONTPpWm+GiLfh8OHC5ss64Eb5rd+xszAJ6Ca5qsg8n0wuW5l6Wp8Y2xtjGne7qrRiXwfRG0rS1fjWuQo4UWZ5kcn8n2wm+SXhH48Yz6gFH/uHpAalcj34dciTyXGnOI7Di8blcj3wQ/0L7kZPY4/flFG5/CyUYk8ZHXiZD07m0zzoxF5yOrCp6UapvnRiDxkVOOb1TiKeBQi34cnjwtPefSoMKAaty46ingUIt+Hhw8LT3nkezKYmt9yMnb6mOYHJfJ9ELStHruyGVTtDyBdqmDHz4SIfB8sTWz14/3CQIY4SnhRDi8blMj34YGobXHf92MQQx4lvCjHHQxG5Ptgct3q3t3CAE43tN5tmh+MyPch1qDv/VDY4EWvfxH3DxrbuWKaH4TI9+Wu6XVdLF25Ed2/FrcmxjTvvZB7J/J9McnP3PV96F0Nh5DN6z8reio3KZHvS0TeMkUpt/6v0LOWHzCKF6i3HXfQJ5Hv0507ZdJiqcYLXb9anuI7sTbv8LLeiHyfblyb9hEH1/+n0LMLn5TmObysVyLfp9hl89VEQxc3W2/dLPQoblyeOFVScBRxb0S+b1Od5q9cLvQs0/EApvneiHzfpjjNm+L7V/MhZPMyzfdC5IcwtWneFN+/jA8SOYq4FyI/hJjm//BRmYSY4E3x/co4xXfe8cYiyybyQ/n2dinf3S6pxTKNKb5/2Y8DcBTxUon8kGKaz/yI/2cXHWHQt8xTfMfhZUsl8kOKZZvfnc+5Pn/1y/xXKmNbP4RsIod6ObxsaUR+aPEUaEy8mcQavGWa/rV0lPCiTPNLI/JjiCheTRLFeNGayk3lMbV4lPCiTPNLIfJjufJl+6GPQ9h++1ZhAFPcWmiaXwqRH1OE/vNGl27iaiQCP+WzeYaS4RCyeV36U2ExIj+269dKef21tnalxE1WSzTDmfIDQvECd7qR962tlMjXINa1Yyqu/VjemNrfO+8m65CmPMV3LnzquIMFiHwtYpL/zWv1rtPH+nv8/myTHJbH/B1etiCRr02s07/yUj1HA8SLT0zvcaXhQadhxY3HqU/xHYeXzU3kaxQxjTXvCOtY7xUbSzNxVWF6H0+GNwRZFtP83A5s/sVPLzz//dpXXi7UZX2ie3P2MEzf4kXl2zulfHPTzpkxxc1GO0u2iifG4yrXz+W+iHxL4iZcF/z4vCxx5RAHqEXcx7pyYKu//8NpjNv56lopf0z2xHjPRL5VsT55fONhkdWjs4+9rFnGFBRRjx09d9eCfu+utXZITOSzielvuwkwQh6Xuy51YVIOFnKJmJvMgQ121wAkJvIAiYk8QGIiD5CYyAMkJvIAiYk8QGIiD5CYyAMkJvIAiYk8QGIiD5CYyAMkJvIAiYk8QGIiD5CYyAMkJvIAiYk8QGIiD5CYyAMkJvIAiYk8QGIiD5CYyAMkJvIAiYk8QGIiD5CYyAMkJvIAiYk8QGIiD5CYyAMkJvIAiYk8QGIiD5CYyAMkJvIAiYk8QGIiD5CYyAMkJvIAiYk8QGIiD5CYyAMkJvIAiYk8QGIiD5CYyAMkJvIAiYk8QGIiD5CYyAMkJvIAiYk8QGIiD5CYyAMkJvIAiYk8QGIiD5CYyAMkJvIAiYk8QGIiD5CYyAMkJvIAiYk8QGIiD5CYyAMkJvIAiYk8QGIHt/zqV+Wfa/95oACQwr8AEGR/tYeLYswAAAAASUVORK5CYII=;imageBackground=none;fillStyle=cross-hatch;" vertex="1" parent="1">
          <mxGeometry x="285" y="750" width="60" height="60" as="geometry" />
        </mxCell>
        <mxCell id="82siV1Ass7THwQfGUrbe-30" style="rounded=0;orthogonalLoop=1;jettySize=auto;html=1;exitX=0;exitY=0.5;exitDx=0;exitDy=0;entryX=1;entryY=0.5;entryDx=0;entryDy=0;dashed=1;" edge="1" parent="1" source="82siV1Ass7THwQfGUrbe-17" target="82siV1Ass7THwQfGUrbe-18">
          <mxGeometry relative="1" as="geometry" />
        </mxCell>
        <mxCell id="82siV1Ass7THwQfGUrbe-17" value="" style="shape=image;verticalLabelPosition=bottom;verticalAlign=top;imageAspect=0;aspect=fixed;image=data:image/png,iVBORw0KGgoAAAANSUhEUgAAAXkAAAF5CAYAAAB6A1o9AAAACXBIWXMAACxLAAAsSwGlPZapAAAAAXNSR0IArs4c6QAAAARnQU1BAACxjwv8YQUAABCnSURBVHgB7d2xjlXXucDxRURr0l/mSm4sMTwAuLHkawONixibxkWMTYPk2HIaSzFXdoPsIDmFEdwrpeEaUvgWXHNTpAE7LtIYujTgB4AXgAdw5pszW57BM8zMOWfvvda3fz9pMmZiKWQY/ufba6+9zoGyyU8vPP99OVBeLgCk8KsCQFoiD5CYyAMkJvIAiYk8QGIiD5CYyAMkJvIAiYk8QGIiD5CYyAMkJvIAiYk8QGIiD5CYyAMkJvIAiYk8QGIiD5CYyAMkJvIAiYk8QGIiD5CYyAMkJvIAiYk8QGIiD5CYyAMkJvIAiYk8QGIiD5CYyAMkJvIAiYk8QGIiD5CYyAMkJvIAiYk8QGIiD5CYyAMkJvIAiYk8QGIiD5CYyAMkJvIAiYk8QGIiD5CYyAMkJvIAiYk8QGIiD5CYyAMkJvIAiYk8QGIiD5CYyAMkJvIAiYk8QGIiD5CYyAMkJvIAiYk8QGIiD5CYyAMkJvIAiYk8QGIiD5CYyAMkJvIAiYk8QGIiD5CYyAMkJvIAiYk8QGIiD5CYyAMkJvIAiYl8ZsdeLMC0iXxml75YC/3xAkyXyGd1+s1SDq+U8sHvCzBdIp9VF/dYsjlytADTJPIZRdhjiu/EVA9Mkshn9HTU3zhTynOHCjA9Ip9NTPAR9c0OrQX+7LsFmJ6DhVze/3D7r589V8rVy4VGxIv1ja8Lmzx6WMrbbxX2R+QziTAc32FvfEzzr54s5bs7hUasrBQ2OVCYg+WaTGJP/OFnhOGdcwWYFpHPZLc98bHrxsNRMCkin0X38NNuPBwFkyLyWZw+s7d/L6Z52ylhMkQ+g2fdcN2O7ZQwGSKfwU7bJncS2ylN8zAJIt+67R5+2o2Ho2AyRL5188Z6vy8MQJNEvnUnTpW5xBWA7ZSQnsi3bK/bJndiOyWkJ/ItWzTSHo6C9ES+VU+fGT+v09bmITORb9WydsfEmr7tlJCWyLcoJvh5b7g+zXZKSE3kW7Tfh5924+EoSEvkWzPPw0+7iWne+8BCSiLfmr52w5xc0vIPUBWRb01fe9ttp4SURL4liz78tBsPR0E63uO1ZhH0w4dnn9d3wfT89n0xzcdN3XjD5Ph4/Hjt86NSnjwuQJtEfgyxkyWifWR19nk95iuzr69s+jyG7ab5iPzDLvobLwDd155svBDE14DqiPyyrcf6udnnLthdxOPj14fa264Yv9/Vo7v/ew83XwFsvAA8uO+FAEYk8vsV03cELybwf9tYRolfjzl912JlZffvwXZXBd3HgweWhmDJRH6/njyZLWkcnnjQ57XTVcHVL0u5d7cAy2V3zX7FxPnbtyw9LEtM7h9/VMqVywVYPpGfRwT+9ddK+fF+YQHdC+Y3NwvQD5GfV6wp/2Yt9DeuFebQBf6BF0rok8gv6rOLa+vJlhr2JcIeL5CWvKB3Ir8MV9ZuGn5+sbAHt27OJni7aGAQIr8s16/N1unFa2exg+YPH/kewYBEfpksQ+wsrnTsoIHBifyy2WK5VUzt8f247gY1jEHk+9Btsfzudpm07gXv3g8FGIfI9yW2WL53fro7b2yRhCqIfN9i583UQh+Tu3sTUAWRH8KVCe0qibV3WyShGiI/lG5/eObp9qrnBaA2Ij+kWJ/OGnqHjEGVRH5o3Q3JLIebxbJM7CRyyBhUSeTHEKHPcLhZ9//DDhqolsiPqeXDzTIvPUEiIj+2Fg83m8JNZEhC5GsQ2w5/d76NbYcOGYOmiHwtvr1d/83LeIrXDhpoisjX5MjRUrVDh7yBOTRG5Gty/MVSvWPHC9AOka/FsQYCH2q/2gC2EPlarDYSz6MiDy0R+Vq0sgwSk/xzhwrQBpGvxUojNzTdfIWmiHwNIpwtrXW7+QrNEPkatBbNVu4fACJfhVZ21nRa2OoJrBP5GrS2LTHW5N18hSaIfA1a3JbY2tUHTJTIj2210S2Jbr5CE0R+bEdWS5M8FAVNEPmx9bns0edxwI43gCaI/Nj6mIgj7vGOU//x0uzs9z7e3KO1vf0wUSI/pj5Cee+H2fuuxjtORezjXZxeeamftxm0Lg/VE/kxLTPwMa3HW/Lt9LZ8Ef2I/a0lvjGJh6KgeiI/pmVMwt3STEzvMcU/S8Q/lm+WtYTjoSionsiPadGbrk8vzezVspZwPBQF1RP5Mc170zWm8PfO77w0s1fLWMLxUBRUTeTHMu9DUN3SzHe3y1IsuoTj5itUTeTHst+HoGJpJqbu/S7N7FVM86+/tv8lHA9FQdVEfix7XeZY1tLMXjx+/PMSzl6vFOyVh6odLIxjLxNwTNVfXev3ydXtdC8sp8+U8sGHz34nqG6v/4/3C0sUfwbxYgsLEvkx7PYQVCzN9PWk6n7EEk5M9GfPlfL+hzv/e6urIt+Hsf/8ScFyzRh2CnxM7BH3IZZm9movSzh22EC1RH4M2+1IuX5tdtbMMp9IXaZuCWe7KwwPRUG1RH4MmyffWJqJXS2fXxx+7X0e8SIUVxo3rv38NQ9FQbVEfgxx03Xz0syDxtazY5L/7OJsCadbi19t9Fx8SM6N16HFQ1DfrE3DVy63Mbk/S8Q+HsyKXTiH/33tC3cLUJcDm3/x0wvPf7/2lZcLAClYrgFITOQBEhN5gMREHiAxkQdITOQBEhN5gMREHiAxkQdITOQBEhN5gMREHiAxkQdITOQBEhN5gMREHiAxkQdITOQBEhN5gMREHiAxkQdITOQBEhN5gMREHiAxkQdITOQBEhN5gMREHiAxkQdITOQBEhN5gMREHiAxkQdITOQBEhN5gMREHiAxkQdITOQBEhN5gMREHiAxkQdITOQBEhN5gMREHiAxkQdITOQBEhN5gMREHiAxkQdITOQBEhN5gMREHiAxkQdITOQBEhN5gMREHiAxkQdITOQBEhN5gMREHiAxkQdITOQBEhN5gMREHiAxkQdITOQBEhN5gMREHiAxkQdITOQBEhN5gMREHiAxkQdI7GChbYdXSjmyWspKfD5aynOHZv8cnztPHpfyeOPjx/ulPFj7ePRw7Z8fFCA3kW9NxPvEyVKOvTj7iKDvx8lTP/9zxP/+WvBv3Szl3t1Z+OFpq0dngwFNOrD5Fz+98Pz3a195uVCfY8dLOXuulOMvbp3Sl+nuD7Pgf3tn9gIAMUj8159LeeUlPxONMsnX7vSbax9nZnHvW/xvxEdM9BH8q5dN91P3/oelHFobKs6+O/t5oDkm+VrF5H7pT7M197FE4L+56S/3VMWAET+DIe7nmOabZHdNbSLqN74u5S//O27gu9/LB78v5e//mP2FZ1riz74T03xM9TRH5GsSa+5//dswSzP7EbGPie7jT/q7H0Bd4kX96SHjnXPjDx7sm8jXIMJ54ZPZR80RfWfjRchf9Pw2T/GbmeabI/Jji2D+5evZFN+C+P3+/99m9wzIabspvvPGGX/2jRH5MXWBj33ILYn12bhnELt+yCWuJHea4ju7/fdUReTH0gW+5aWPS18IfTZn97Duvv4gnmm+FSI/hgyB7wh9HvHz+MYed1GZ5psh8mOIJwgz3byMG8ZHGlty4pfipupefy5N880Q+aFFEFtbg99NrNH/959tr2zZ+hS/zyuyC58W6ifyQ4r1zlZ20exXRCJCT5vm2RoZw4qH5Kon8kNZf3o0+R7juIR/+91CY+aZ4juxNu8KrmoiP5SYlKbwlyH+0ntYqi2LPOAUf9ZnvbDXTOSHEJe0b0xkB8qhjad3aUMsuSz6sxlLkKb5aon8EKa23ezEKTsvWvHxEl6Qu6OIqZLI9+1Zj4hnZh91/eJnc1mH4ZnmqyXyfZtq7Oyjrt8yfzZN89US+T5F6KZ8E/LVU4VK9XGFuZcjERicyPdp6nuI44aeS/g69XGF6Y1FqiTyfYkf+KnsqNlJfA88LFOfPu8TOYq4OiLfl1dPFtactGRTnb7vE7npXhWR78sJcVsXB5dZsqnH+wM8rOame1VEvi/ZDiGbVyzZrK4WKrCfo4QXZZqvhsj3IQJvl8HPHENch9jiONTPpWm+GiLfh8OHC5ss64Eb5rd+xszAJ6Ca5qsg8n0wuW5l6Wp8Y2xtjGne7qrRiXwfRG0rS1fjWuQo4UWZ5kcn8n2wm+SXhH48Yz6gFH/uHpAalcj34dciTyXGnOI7Di8blcj3wQ/0L7kZPY4/flFG5/CyUYk8ZHXiZD07m0zzoxF5yOrCp6UapvnRiDxkVOOb1TiKeBQi34cnjwtPefSoMKAaty46ingUIt+Hhw8LT3nkezKYmt9yMnb6mOYHJfJ9ELStHruyGVTtDyBdqmDHz4SIfB8sTWz14/3CQIY4SnhRDi8blMj34YGobXHf92MQQx4lvCjHHQxG5Ptgct3q3t3CAE43tN5tmh+MyPch1qDv/VDY4EWvfxH3DxrbuWKaH4TI9+Wu6XVdLF25Ed2/FrcmxjTvvZB7J/J9McnP3PV96F0Nh5DN6z8reio3KZHvS0TeMkUpt/6v0LOWHzCKF6i3HXfQJ5Hv0507ZdJiqcYLXb9anuI7sTbv8LLeiHyfblyb9hEH1/+n0LMLn5TmObysVyLfp9hl89VEQxc3W2/dLPQoblyeOFVScBRxb0S+b1Od5q9cLvQs0/EApvneiHzfpjjNm+L7V/MhZPMyzfdC5IcwtWneFN+/jA8SOYq4FyI/hJjm//BRmYSY4E3x/co4xXfe8cYiyybyQ/n2dinf3S6pxTKNKb5/2Y8DcBTxUon8kGKaz/yI/2cXHWHQt8xTfMfhZUsl8kOKZZvfnc+5Pn/1y/xXKmNbP4RsIod6ObxsaUR+aPEUaEy8mcQavGWa/rV0lPCiTPNLI/JjiCheTRLFeNGayk3lMbV4lPCiTPNLIfJjufJl+6GPQ9h++1ZhAFPcWmiaXwqRH1OE/vNGl27iaiQCP+WzeYaS4RCyeV36U2ExIj+269dKef21tnalxE1WSzTDmfIDQvECd7qR962tlMjXINa1Yyqu/VjemNrfO+8m65CmPMV3LnzquIMFiHwtYpL/zWv1rtPH+nv8/myTHJbH/B1etiCRr02s07/yUj1HA8SLT0zvcaXhQadhxY3HqU/xHYeXzU3kaxQxjTXvCOtY7xUbSzNxVWF6H0+GNwRZFtP83A5s/sVPLzz//dpXXi7UZX2ie3P2MEzf4kXl2zulfHPTzpkxxc1GO0u2iifG4yrXz+W+iHxL4iZcF/z4vCxx5RAHqEXcx7pyYKu//8NpjNv56lopf0z2xHjPRL5VsT55fONhkdWjs4+9rFnGFBRRjx09d9eCfu+utXZITOSzielvuwkwQh6Xuy51YVIOFnKJmJvMgQ121wAkJvIAiYk8QGIiD5CYyAMkJvIAiYk8QGIiD5CYyAMkJvIAiYk8QGIiD5CYyAMkJvIAiYk8QGIiD5CYyAMkJvIAiYk8QGIiD5CYyAMkJvIAiYk8QGIiD5CYyAMkJvIAiYk8QGIiD5CYyAMkJvIAiYk8QGIiD5CYyAMkJvIAiYk8QGIiD5CYyAMkJvIAiYk8QGIiD5CYyAMkJvIAiYk8QGIiD5CYyAMkJvIAiYk8QGIiD5CYyAMkJvIAiYk8QGIiD5CYyAMkJvIAiYk8QGIiD5CYyAMkJvIAiYk8QGIiD5CYyAMkJvIAiYk8QGIiD5CYyAMkJvIAiYk8QGIiD5CYyAMkJvIAiYk8QGIHt/zqV+Wfa/95oACQwr8AEGR/tYeLYswAAAAASUVORK5CYII=;imageBackground=none;fillStyle=cross-hatch;" vertex="1" parent="1">
          <mxGeometry x="475" y="750" width="60" height="60" as="geometry" />
        </mxCell>
        <mxCell id="82siV1Ass7THwQfGUrbe-18" value="" style="shape=image;verticalLabelPosition=bottom;verticalAlign=top;imageAspect=0;aspect=fixed;image=data:image/png,iVBORw0KGgoAAAANSUhEUgAAAXkAAAF5CAYAAAB6A1o9AAAACXBIWXMAACxLAAAsSwGlPZapAAAAAXNSR0IArs4c6QAAAARnQU1BAACxjwv8YQUAABCnSURBVHgB7d2xjlXXucDxRURr0l/mSm4sMTwAuLHkawONixibxkWMTYPk2HIaSzFXdoPsIDmFEdwrpeEaUvgWXHNTpAE7LtIYujTgB4AXgAdw5pszW57BM8zMOWfvvda3fz9pMmZiKWQY/ufba6+9zoGyyU8vPP99OVBeLgCk8KsCQFoiD5CYyAMkJvIAiYk8QGIiD5CYyAMkJvIAiYk8QGIiD5CYyAMkJvIAiYk8QGIiD5CYyAMkJvIAiYk8QGIiD5CYyAMkJvIAiYk8QGIiD5CYyAMkJvIAiYk8QGIiD5CYyAMkJvIAiYk8QGIiD5CYyAMkJvIAiYk8QGIiD5CYyAMkJvIAiYk8QGIiD5CYyAMkJvIAiYk8QGIiD5CYyAMkJvIAiYk8QGIiD5CYyAMkJvIAiYk8QGIiD5CYyAMkJvIAiYk8QGIiD5CYyAMkJvIAiYk8QGIiD5CYyAMkJvIAiYk8QGIiD5CYyAMkJvIAiYk8QGIiD5CYyAMkJvIAiYk8QGIiD5CYyAMkJvIAiYk8QGIiD5CYyAMkJvIAiYl8ZsdeLMC0iXxml75YC/3xAkyXyGd1+s1SDq+U8sHvCzBdIp9VF/dYsjlytADTJPIZRdhjiu/EVA9Mkshn9HTU3zhTynOHCjA9Ip9NTPAR9c0OrQX+7LsFmJ6DhVze/3D7r589V8rVy4VGxIv1ja8Lmzx6WMrbbxX2R+QziTAc32FvfEzzr54s5bs7hUasrBQ2OVCYg+WaTGJP/OFnhOGdcwWYFpHPZLc98bHrxsNRMCkin0X38NNuPBwFkyLyWZw+s7d/L6Z52ylhMkQ+g2fdcN2O7ZQwGSKfwU7bJncS2ylN8zAJIt+67R5+2o2Ho2AyRL5188Z6vy8MQJNEvnUnTpW5xBWA7ZSQnsi3bK/bJndiOyWkJ/ItWzTSHo6C9ES+VU+fGT+v09bmITORb9WydsfEmr7tlJCWyLcoJvh5b7g+zXZKSE3kW7Tfh5924+EoSEvkWzPPw0+7iWne+8BCSiLfmr52w5xc0vIPUBWRb01fe9ttp4SURL4liz78tBsPR0E63uO1ZhH0w4dnn9d3wfT89n0xzcdN3XjD5Ph4/Hjt86NSnjwuQJtEfgyxkyWifWR19nk95iuzr69s+jyG7ab5iPzDLvobLwDd155svBDE14DqiPyyrcf6udnnLthdxOPj14fa264Yv9/Vo7v/ew83XwFsvAA8uO+FAEYk8vsV03cELybwf9tYRolfjzl912JlZffvwXZXBd3HgweWhmDJRH6/njyZLWkcnnjQ57XTVcHVL0u5d7cAy2V3zX7FxPnbtyw9LEtM7h9/VMqVywVYPpGfRwT+9ddK+fF+YQHdC+Y3NwvQD5GfV6wp/2Yt9DeuFebQBf6BF0rok8gv6rOLa+vJlhr2JcIeL5CWvKB3Ir8MV9ZuGn5+sbAHt27OJni7aGAQIr8s16/N1unFa2exg+YPH/kewYBEfpksQ+wsrnTsoIHBifyy2WK5VUzt8f247gY1jEHk+9Btsfzudpm07gXv3g8FGIfI9yW2WL53fro7b2yRhCqIfN9i583UQh+Tu3sTUAWRH8KVCe0qibV3WyShGiI/lG5/eObp9qrnBaA2Ij+kWJ/OGnqHjEGVRH5o3Q3JLIebxbJM7CRyyBhUSeTHEKHPcLhZ9//DDhqolsiPqeXDzTIvPUEiIj+2Fg83m8JNZEhC5GsQ2w5/d76NbYcOGYOmiHwtvr1d/83LeIrXDhpoisjX5MjRUrVDh7yBOTRG5Gty/MVSvWPHC9AOka/FsQYCH2q/2gC2EPlarDYSz6MiDy0R+Vq0sgwSk/xzhwrQBpGvxUojNzTdfIWmiHwNIpwtrXW7+QrNEPkatBbNVu4fACJfhVZ21nRa2OoJrBP5GrS2LTHW5N18hSaIfA1a3JbY2tUHTJTIj2210S2Jbr5CE0R+bEdWS5M8FAVNEPmx9bns0edxwI43gCaI/Nj6mIgj7vGOU//x0uzs9z7e3KO1vf0wUSI/pj5Cee+H2fuuxjtORezjXZxeeamftxm0Lg/VE/kxLTPwMa3HW/Lt9LZ8Ef2I/a0lvjGJh6KgeiI/pmVMwt3STEzvMcU/S8Q/lm+WtYTjoSionsiPadGbrk8vzezVspZwPBQF1RP5Mc170zWm8PfO77w0s1fLWMLxUBRUTeTHMu9DUN3SzHe3y1IsuoTj5itUTeTHst+HoGJpJqbu/S7N7FVM86+/tv8lHA9FQdVEfix7XeZY1tLMXjx+/PMSzl6vFOyVh6odLIxjLxNwTNVfXev3ydXtdC8sp8+U8sGHz34nqG6v/4/3C0sUfwbxYgsLEvkx7PYQVCzN9PWk6n7EEk5M9GfPlfL+hzv/e6urIt+Hsf/8ScFyzRh2CnxM7BH3IZZm9movSzh22EC1RH4M2+1IuX5tdtbMMp9IXaZuCWe7KwwPRUG1RH4MmyffWJqJXS2fXxx+7X0e8SIUVxo3rv38NQ9FQbVEfgxx03Xz0syDxtazY5L/7OJsCadbi19t9Fx8SM6N16HFQ1DfrE3DVy63Mbk/S8Q+HsyKXTiH/33tC3cLUJcDm3/x0wvPf7/2lZcLAClYrgFITOQBEhN5gMREHiAxkQdITOQBEhN5gMREHiAxkQdITOQBEhN5gMREHiAxkQdITOQBEhN5gMREHiAxkQdITOQBEhN5gMREHiAxkQdITOQBEhN5gMREHiAxkQdITOQBEhN5gMREHiAxkQdITOQBEhN5gMREHiAxkQdITOQBEhN5gMREHiAxkQdITOQBEhN5gMREHiAxkQdITOQBEhN5gMREHiAxkQdITOQBEhN5gMREHiAxkQdITOQBEhN5gMREHiAxkQdITOQBEhN5gMREHiAxkQdITOQBEhN5gMREHiAxkQdITOQBEhN5gMREHiAxkQdITOQBEhN5gMREHiAxkQdITOQBEhN5gMREHiAxkQdI7GChbYdXSjmyWspKfD5aynOHZv8cnztPHpfyeOPjx/ulPFj7ePRw7Z8fFCA3kW9NxPvEyVKOvTj7iKDvx8lTP/9zxP/+WvBv3Szl3t1Z+OFpq0dngwFNOrD5Fz+98Pz3a195uVCfY8dLOXuulOMvbp3Sl+nuD7Pgf3tn9gIAMUj8159LeeUlPxONMsnX7vSbax9nZnHvW/xvxEdM9BH8q5dN91P3/oelHFobKs6+O/t5oDkm+VrF5H7pT7M197FE4L+56S/3VMWAET+DIe7nmOabZHdNbSLqN74u5S//O27gu9/LB78v5e//mP2FZ1riz74T03xM9TRH5GsSa+5//dswSzP7EbGPie7jT/q7H0Bd4kX96SHjnXPjDx7sm8jXIMJ54ZPZR80RfWfjRchf9Pw2T/GbmeabI/Jji2D+5evZFN+C+P3+/99m9wzIabspvvPGGX/2jRH5MXWBj33ILYn12bhnELt+yCWuJHea4ju7/fdUReTH0gW+5aWPS18IfTZn97Duvv4gnmm+FSI/hgyB7wh9HvHz+MYed1GZ5psh8mOIJwgz3byMG8ZHGlty4pfipupefy5N880Q+aFFEFtbg99NrNH/959tr2zZ+hS/zyuyC58W6ifyQ4r1zlZ20exXRCJCT5vm2RoZw4qH5Kon8kNZf3o0+R7juIR/+91CY+aZ4juxNu8KrmoiP5SYlKbwlyH+0ntYqi2LPOAUf9ZnvbDXTOSHEJe0b0xkB8qhjad3aUMsuSz6sxlLkKb5aon8EKa23ezEKTsvWvHxEl6Qu6OIqZLI9+1Zj4hnZh91/eJnc1mH4ZnmqyXyfZtq7Oyjrt8yfzZN89US+T5F6KZ8E/LVU4VK9XGFuZcjERicyPdp6nuI44aeS/g69XGF6Y1FqiTyfYkf+KnsqNlJfA88LFOfPu8TOYq4OiLfl1dPFtactGRTnb7vE7npXhWR78sJcVsXB5dZsqnH+wM8rOame1VEvi/ZDiGbVyzZrK4WKrCfo4QXZZqvhsj3IQJvl8HPHENch9jiONTPpWm+GiLfh8OHC5ss64Eb5rd+xszAJ6Ca5qsg8n0wuW5l6Wp8Y2xtjGne7qrRiXwfRG0rS1fjWuQo4UWZ5kcn8n2wm+SXhH48Yz6gFH/uHpAalcj34dciTyXGnOI7Di8blcj3wQ/0L7kZPY4/flFG5/CyUYk8ZHXiZD07m0zzoxF5yOrCp6UapvnRiDxkVOOb1TiKeBQi34cnjwtPefSoMKAaty46ingUIt+Hhw8LT3nkezKYmt9yMnb6mOYHJfJ9ELStHruyGVTtDyBdqmDHz4SIfB8sTWz14/3CQIY4SnhRDi8blMj34YGobXHf92MQQx4lvCjHHQxG5Ptgct3q3t3CAE43tN5tmh+MyPch1qDv/VDY4EWvfxH3DxrbuWKaH4TI9+Wu6XVdLF25Ed2/FrcmxjTvvZB7J/J9McnP3PV96F0Nh5DN6z8reio3KZHvS0TeMkUpt/6v0LOWHzCKF6i3HXfQJ5Hv0507ZdJiqcYLXb9anuI7sTbv8LLeiHyfblyb9hEH1/+n0LMLn5TmObysVyLfp9hl89VEQxc3W2/dLPQoblyeOFVScBRxb0S+b1Od5q9cLvQs0/EApvneiHzfpjjNm+L7V/MhZPMyzfdC5IcwtWneFN+/jA8SOYq4FyI/hJjm//BRmYSY4E3x/co4xXfe8cYiyybyQ/n2dinf3S6pxTKNKb5/2Y8DcBTxUon8kGKaz/yI/2cXHWHQt8xTfMfhZUsl8kOKZZvfnc+5Pn/1y/xXKmNbP4RsIod6ObxsaUR+aPEUaEy8mcQavGWa/rV0lPCiTPNLI/JjiCheTRLFeNGayk3lMbV4lPCiTPNLIfJjufJl+6GPQ9h++1ZhAFPcWmiaXwqRH1OE/vNGl27iaiQCP+WzeYaS4RCyeV36U2ExIj+269dKef21tnalxE1WSzTDmfIDQvECd7qR962tlMjXINa1Yyqu/VjemNrfO+8m65CmPMV3LnzquIMFiHwtYpL/zWv1rtPH+nv8/myTHJbH/B1etiCRr02s07/yUj1HA8SLT0zvcaXhQadhxY3HqU/xHYeXzU3kaxQxjTXvCOtY7xUbSzNxVWF6H0+GNwRZFtP83A5s/sVPLzz//dpXXi7UZX2ie3P2MEzf4kXl2zulfHPTzpkxxc1GO0u2iifG4yrXz+W+iHxL4iZcF/z4vCxx5RAHqEXcx7pyYKu//8NpjNv56lopf0z2xHjPRL5VsT55fONhkdWjs4+9rFnGFBRRjx09d9eCfu+utXZITOSzielvuwkwQh6Xuy51YVIOFnKJmJvMgQ121wAkJvIAiYk8QGIiD5CYyAMkJvIAiYk8QGIiD5CYyAMkJvIAiYk8QGIiD5CYyAMkJvIAiYk8QGIiD5CYyAMkJvIAiYk8QGIiD5CYyAMkJvIAiYk8QGIiD5CYyAMkJvIAiYk8QGIiD5CYyAMkJvIAiYk8QGIiD5CYyAMkJvIAiYk8QGIiD5CYyAMkJvIAiYk8QGIiD5CYyAMkJvIAiYk8QGIiD5CYyAMkJvIAiYk8QGIiD5CYyAMkJvIAiYk8QGIiD5CYyAMkJvIAiYk8QGIiD5CYyAMkJvIAiYk8QGIiD5CYyAMkJvIAiYk8QGIiD5CYyAMkJvIAiYk8QGIiD5CYyAMkJvIAiYk8QGIHt/zqV+Wfa/95oACQwr8AEGR/tYeLYswAAAAASUVORK5CYII=;imageBackground=none;fillStyle=cross-hatch;opacity=50;" vertex="1" parent="1">
          <mxGeometry x="95" y="820" width="60" height="60" as="geometry" />
        </mxCell>
        <mxCell id="82siV1Ass7THwQfGUrbe-19" value="" style="shape=image;verticalLabelPosition=bottom;verticalAlign=top;imageAspect=0;aspect=fixed;image=data:image/png,iVBORw0KGgoAAAANSUhEUgAAAXkAAAF5CAYAAAB6A1o9AAAACXBIWXMAACxLAAAsSwGlPZapAAAAAXNSR0IArs4c6QAAAARnQU1BAACxjwv8YQUAABCnSURBVHgB7d2xjlXXucDxRURr0l/mSm4sMTwAuLHkawONixibxkWMTYPk2HIaSzFXdoPsIDmFEdwrpeEaUvgWXHNTpAE7LtIYujTgB4AXgAdw5pszW57BM8zMOWfvvda3fz9pMmZiKWQY/ufba6+9zoGyyU8vPP99OVBeLgCk8KsCQFoiD5CYyAMkJvIAiYk8QGIiD5CYyAMkJvIAiYk8QGIiD5CYyAMkJvIAiYk8QGIiD5CYyAMkJvIAiYk8QGIiD5CYyAMkJvIAiYk8QGIiD5CYyAMkJvIAiYk8QGIiD5CYyAMkJvIAiYk8QGIiD5CYyAMkJvIAiYk8QGIiD5CYyAMkJvIAiYk8QGIiD5CYyAMkJvIAiYk8QGIiD5CYyAMkJvIAiYk8QGIiD5CYyAMkJvIAiYk8QGIiD5CYyAMkJvIAiYk8QGIiD5CYyAMkJvIAiYk8QGIiD5CYyAMkJvIAiYk8QGIiD5CYyAMkJvIAiYk8QGIiD5CYyAMkJvIAiYk8QGIiD5CYyAMkJvIAiYk8QGIiD5CYyAMkJvIAiYl8ZsdeLMC0iXxml75YC/3xAkyXyGd1+s1SDq+U8sHvCzBdIp9VF/dYsjlytADTJPIZRdhjiu/EVA9Mkshn9HTU3zhTynOHCjA9Ip9NTPAR9c0OrQX+7LsFmJ6DhVze/3D7r589V8rVy4VGxIv1ja8Lmzx6WMrbbxX2R+QziTAc32FvfEzzr54s5bs7hUasrBQ2OVCYg+WaTGJP/OFnhOGdcwWYFpHPZLc98bHrxsNRMCkin0X38NNuPBwFkyLyWZw+s7d/L6Z52ylhMkQ+g2fdcN2O7ZQwGSKfwU7bJncS2ylN8zAJIt+67R5+2o2Ho2AyRL5188Z6vy8MQJNEvnUnTpW5xBWA7ZSQnsi3bK/bJndiOyWkJ/ItWzTSHo6C9ES+VU+fGT+v09bmITORb9WydsfEmr7tlJCWyLcoJvh5b7g+zXZKSE3kW7Tfh5924+EoSEvkWzPPw0+7iWne+8BCSiLfmr52w5xc0vIPUBWRb01fe9ttp4SURL4liz78tBsPR0E63uO1ZhH0w4dnn9d3wfT89n0xzcdN3XjD5Ph4/Hjt86NSnjwuQJtEfgyxkyWifWR19nk95iuzr69s+jyG7ab5iPzDLvobLwDd155svBDE14DqiPyyrcf6udnnLthdxOPj14fa264Yv9/Vo7v/ew83XwFsvAA8uO+FAEYk8vsV03cELybwf9tYRolfjzl912JlZffvwXZXBd3HgweWhmDJRH6/njyZLWkcnnjQ57XTVcHVL0u5d7cAy2V3zX7FxPnbtyw9LEtM7h9/VMqVywVYPpGfRwT+9ddK+fF+YQHdC+Y3NwvQD5GfV6wp/2Yt9DeuFebQBf6BF0rok8gv6rOLa+vJlhr2JcIeL5CWvKB3Ir8MV9ZuGn5+sbAHt27OJni7aGAQIr8s16/N1unFa2exg+YPH/kewYBEfpksQ+wsrnTsoIHBifyy2WK5VUzt8f247gY1jEHk+9Btsfzudpm07gXv3g8FGIfI9yW2WL53fro7b2yRhCqIfN9i583UQh+Tu3sTUAWRH8KVCe0qibV3WyShGiI/lG5/eObp9qrnBaA2Ij+kWJ/OGnqHjEGVRH5o3Q3JLIebxbJM7CRyyBhUSeTHEKHPcLhZ9//DDhqolsiPqeXDzTIvPUEiIj+2Fg83m8JNZEhC5GsQ2w5/d76NbYcOGYOmiHwtvr1d/83LeIrXDhpoisjX5MjRUrVDh7yBOTRG5Gty/MVSvWPHC9AOka/FsQYCH2q/2gC2EPlarDYSz6MiDy0R+Vq0sgwSk/xzhwrQBpGvxUojNzTdfIWmiHwNIpwtrXW7+QrNEPkatBbNVu4fACJfhVZ21nRa2OoJrBP5GrS2LTHW5N18hSaIfA1a3JbY2tUHTJTIj2210S2Jbr5CE0R+bEdWS5M8FAVNEPmx9bns0edxwI43gCaI/Nj6mIgj7vGOU//x0uzs9z7e3KO1vf0wUSI/pj5Cee+H2fuuxjtORezjXZxeeamftxm0Lg/VE/kxLTPwMa3HW/Lt9LZ8Ef2I/a0lvjGJh6KgeiI/pmVMwt3STEzvMcU/S8Q/lm+WtYTjoSionsiPadGbrk8vzezVspZwPBQF1RP5Mc170zWm8PfO77w0s1fLWMLxUBRUTeTHMu9DUN3SzHe3y1IsuoTj5itUTeTHst+HoGJpJqbu/S7N7FVM86+/tv8lHA9FQdVEfix7XeZY1tLMXjx+/PMSzl6vFOyVh6odLIxjLxNwTNVfXev3ydXtdC8sp8+U8sGHz34nqG6v/4/3C0sUfwbxYgsLEvkx7PYQVCzN9PWk6n7EEk5M9GfPlfL+hzv/e6urIt+Hsf/8ScFyzRh2CnxM7BH3IZZm9movSzh22EC1RH4M2+1IuX5tdtbMMp9IXaZuCWe7KwwPRUG1RH4MmyffWJqJXS2fXxx+7X0e8SIUVxo3rv38NQ9FQbVEfgxx03Xz0syDxtazY5L/7OJsCadbi19t9Fx8SM6N16HFQ1DfrE3DVy63Mbk/S8Q+HsyKXTiH/33tC3cLUJcDm3/x0wvPf7/2lZcLAClYrgFITOQBEhN5gMREHiAxkQdITOQBEhN5gMREHiAxkQdITOQBEhN5gMREHiAxkQdITOQBEhN5gMREHiAxkQdITOQBEhN5gMREHiAxkQdITOQBEhN5gMREHiAxkQdITOQBEhN5gMREHiAxkQdITOQBEhN5gMREHiAxkQdITOQBEhN5gMREHiAxkQdITOQBEhN5gMREHiAxkQdITOQBEhN5gMREHiAxkQdITOQBEhN5gMREHiAxkQdITOQBEhN5gMREHiAxkQdITOQBEhN5gMREHiAxkQdITOQBEhN5gMREHiAxkQdITOQBEhN5gMREHiAxkQdITOQBEhN5gMREHiAxkQdITOQBEhN5gMREHiAxkQdI7GChbYdXSjmyWspKfD5aynOHZv8cnztPHpfyeOPjx/ulPFj7ePRw7Z8fFCA3kW9NxPvEyVKOvTj7iKDvx8lTP/9zxP/+WvBv3Szl3t1Z+OFpq0dngwFNOrD5Fz+98Pz3a195uVCfY8dLOXuulOMvbp3Sl+nuD7Pgf3tn9gIAMUj8159LeeUlPxONMsnX7vSbax9nZnHvW/xvxEdM9BH8q5dN91P3/oelHFobKs6+O/t5oDkm+VrF5H7pT7M197FE4L+56S/3VMWAET+DIe7nmOabZHdNbSLqN74u5S//O27gu9/LB78v5e//mP2FZ1riz74T03xM9TRH5GsSa+5//dswSzP7EbGPie7jT/q7H0Bd4kX96SHjnXPjDx7sm8jXIMJ54ZPZR80RfWfjRchf9Pw2T/GbmeabI/Jji2D+5evZFN+C+P3+/99m9wzIabspvvPGGX/2jRH5MXWBj33ILYn12bhnELt+yCWuJHea4ju7/fdUReTH0gW+5aWPS18IfTZn97Duvv4gnmm+FSI/hgyB7wh9HvHz+MYed1GZ5psh8mOIJwgz3byMG8ZHGlty4pfipupefy5N880Q+aFFEFtbg99NrNH/959tr2zZ+hS/zyuyC58W6ifyQ4r1zlZ20exXRCJCT5vm2RoZw4qH5Kon8kNZf3o0+R7juIR/+91CY+aZ4juxNu8KrmoiP5SYlKbwlyH+0ntYqi2LPOAUf9ZnvbDXTOSHEJe0b0xkB8qhjad3aUMsuSz6sxlLkKb5aon8EKa23ezEKTsvWvHxEl6Qu6OIqZLI9+1Zj4hnZh91/eJnc1mH4ZnmqyXyfZtq7Oyjrt8yfzZN89US+T5F6KZ8E/LVU4VK9XGFuZcjERicyPdp6nuI44aeS/g69XGF6Y1FqiTyfYkf+KnsqNlJfA88LFOfPu8TOYq4OiLfl1dPFtactGRTnb7vE7npXhWR78sJcVsXB5dZsqnH+wM8rOame1VEvi/ZDiGbVyzZrK4WKrCfo4QXZZqvhsj3IQJvl8HPHENch9jiONTPpWm+GiLfh8OHC5ss64Eb5rd+xszAJ6Ca5qsg8n0wuW5l6Wp8Y2xtjGne7qrRiXwfRG0rS1fjWuQo4UWZ5kcn8n2wm+SXhH48Yz6gFH/uHpAalcj34dciTyXGnOI7Di8blcj3wQ/0L7kZPY4/flFG5/CyUYk8ZHXiZD07m0zzoxF5yOrCp6UapvnRiDxkVOOb1TiKeBQi34cnjwtPefSoMKAaty46ingUIt+Hhw8LT3nkezKYmt9yMnb6mOYHJfJ9ELStHruyGVTtDyBdqmDHz4SIfB8sTWz14/3CQIY4SnhRDi8blMj34YGobXHf92MQQx4lvCjHHQxG5Ptgct3q3t3CAE43tN5tmh+MyPch1qDv/VDY4EWvfxH3DxrbuWKaH4TI9+Wu6XVdLF25Ed2/FrcmxjTvvZB7J/J9McnP3PV96F0Nh5DN6z8reio3KZHvS0TeMkUpt/6v0LOWHzCKF6i3HXfQJ5Hv0507ZdJiqcYLXb9anuI7sTbv8LLeiHyfblyb9hEH1/+n0LMLn5TmObysVyLfp9hl89VEQxc3W2/dLPQoblyeOFVScBRxb0S+b1Od5q9cLvQs0/EApvneiHzfpjjNm+L7V/MhZPMyzfdC5IcwtWneFN+/jA8SOYq4FyI/hJjm//BRmYSY4E3x/co4xXfe8cYiyybyQ/n2dinf3S6pxTKNKb5/2Y8DcBTxUon8kGKaz/yI/2cXHWHQt8xTfMfhZUsl8kOKZZvfnc+5Pn/1y/xXKmNbP4RsIod6ObxsaUR+aPEUaEy8mcQavGWa/rV0lPCiTPNLI/JjiCheTRLFeNGayk3lMbV4lPCiTPNLIfJjufJl+6GPQ9h++1ZhAFPcWmiaXwqRH1OE/vNGl27iaiQCP+WzeYaS4RCyeV36U2ExIj+269dKef21tnalxE1WSzTDmfIDQvECd7qR962tlMjXINa1Yyqu/VjemNrfO+8m65CmPMV3LnzquIMFiHwtYpL/zWv1rtPH+nv8/myTHJbH/B1etiCRr02s07/yUj1HA8SLT0zvcaXhQadhxY3HqU/xHYeXzU3kaxQxjTXvCOtY7xUbSzNxVWF6H0+GNwRZFtP83A5s/sVPLzz//dpXXi7UZX2ie3P2MEzf4kXl2zulfHPTzpkxxc1GO0u2iifG4yrXz+W+iHxL4iZcF/z4vCxx5RAHqEXcx7pyYKu//8NpjNv56lopf0z2xHjPRL5VsT55fONhkdWjs4+9rFnGFBRRjx09d9eCfu+utXZITOSzielvuwkwQh6Xuy51YVIOFnKJmJvMgQ121wAkJvIAiYk8QGIiD5CYyAMkJvIAiYk8QGIiD5CYyAMkJvIAiYk8QGIiD5CYyAMkJvIAiYk8QGIiD5CYyAMkJvIAiYk8QGIiD5CYyAMkJvIAiYk8QGIiD5CYyAMkJvIAiYk8QGIiD5CYyAMkJvIAiYk8QGIiD5CYyAMkJvIAiYk8QGIiD5CYyAMkJvIAiYk8QGIiD5CYyAMkJvIAiYk8QGIiD5CYyAMkJvIAiYk8QGIiD5CYyAMkJvIAiYk8QGIiD5CYyAMkJvIAiYk8QGIiD5CYyAMkJvIAiYk8QGIiD5CYyAMkJvIAiYk8QGIiD5CYyAMkJvIAiYk8QGIiD5CYyAMkJvIAiYk8QGIHt/zqV+Wfa/95oACQwr8AEGR/tYeLYswAAAAASUVORK5CYII=;imageBackground=none;fillStyle=cross-hatch;opacity=50;" vertex="1" parent="1">
          <mxGeometry x="285" y="820" width="60" height="60" as="geometry" />
        </mxCell>
        <mxCell id="82siV1Ass7THwQfGUrbe-20" value="" style="shape=image;verticalLabelPosition=bottom;verticalAlign=top;imageAspect=0;aspect=fixed;image=data:image/png,iVBORw0KGgoAAAANSUhEUgAAAXkAAAF5CAYAAAB6A1o9AAAACXBIWXMAACxLAAAsSwGlPZapAAAAAXNSR0IArs4c6QAAAARnQU1BAACxjwv8YQUAABCnSURBVHgB7d2xjlXXucDxRURr0l/mSm4sMTwAuLHkawONixibxkWMTYPk2HIaSzFXdoPsIDmFEdwrpeEaUvgWXHNTpAE7LtIYujTgB4AXgAdw5pszW57BM8zMOWfvvda3fz9pMmZiKWQY/ufba6+9zoGyyU8vPP99OVBeLgCk8KsCQFoiD5CYyAMkJvIAiYk8QGIiD5CYyAMkJvIAiYk8QGIiD5CYyAMkJvIAiYk8QGIiD5CYyAMkJvIAiYk8QGIiD5CYyAMkJvIAiYk8QGIiD5CYyAMkJvIAiYk8QGIiD5CYyAMkJvIAiYk8QGIiD5CYyAMkJvIAiYk8QGIiD5CYyAMkJvIAiYk8QGIiD5CYyAMkJvIAiYk8QGIiD5CYyAMkJvIAiYk8QGIiD5CYyAMkJvIAiYk8QGIiD5CYyAMkJvIAiYk8QGIiD5CYyAMkJvIAiYk8QGIiD5CYyAMkJvIAiYk8QGIiD5CYyAMkJvIAiYk8QGIiD5CYyAMkJvIAiYk8QGIiD5CYyAMkJvIAiYk8QGIiD5CYyAMkJvIAiYl8ZsdeLMC0iXxml75YC/3xAkyXyGd1+s1SDq+U8sHvCzBdIp9VF/dYsjlytADTJPIZRdhjiu/EVA9Mkshn9HTU3zhTynOHCjA9Ip9NTPAR9c0OrQX+7LsFmJ6DhVze/3D7r589V8rVy4VGxIv1ja8Lmzx6WMrbbxX2R+QziTAc32FvfEzzr54s5bs7hUasrBQ2OVCYg+WaTGJP/OFnhOGdcwWYFpHPZLc98bHrxsNRMCkin0X38NNuPBwFkyLyWZw+s7d/L6Z52ylhMkQ+g2fdcN2O7ZQwGSKfwU7bJncS2ylN8zAJIt+67R5+2o2Ho2AyRL5188Z6vy8MQJNEvnUnTpW5xBWA7ZSQnsi3bK/bJndiOyWkJ/ItWzTSHo6C9ES+VU+fGT+v09bmITORb9WydsfEmr7tlJCWyLcoJvh5b7g+zXZKSE3kW7Tfh5924+EoSEvkWzPPw0+7iWne+8BCSiLfmr52w5xc0vIPUBWRb01fe9ttp4SURL4liz78tBsPR0E63uO1ZhH0w4dnn9d3wfT89n0xzcdN3XjD5Ph4/Hjt86NSnjwuQJtEfgyxkyWifWR19nk95iuzr69s+jyG7ab5iPzDLvobLwDd155svBDE14DqiPyyrcf6udnnLthdxOPj14fa264Yv9/Vo7v/ew83XwFsvAA8uO+FAEYk8vsV03cELybwf9tYRolfjzl912JlZffvwXZXBd3HgweWhmDJRH6/njyZLWkcnnjQ57XTVcHVL0u5d7cAy2V3zX7FxPnbtyw9LEtM7h9/VMqVywVYPpGfRwT+9ddK+fF+YQHdC+Y3NwvQD5GfV6wp/2Yt9DeuFebQBf6BF0rok8gv6rOLa+vJlhr2JcIeL5CWvKB3Ir8MV9ZuGn5+sbAHt27OJni7aGAQIr8s16/N1unFa2exg+YPH/kewYBEfpksQ+wsrnTsoIHBifyy2WK5VUzt8f247gY1jEHk+9Btsfzudpm07gXv3g8FGIfI9yW2WL53fro7b2yRhCqIfN9i583UQh+Tu3sTUAWRH8KVCe0qibV3WyShGiI/lG5/eObp9qrnBaA2Ij+kWJ/OGnqHjEGVRH5o3Q3JLIebxbJM7CRyyBhUSeTHEKHPcLhZ9//DDhqolsiPqeXDzTIvPUEiIj+2Fg83m8JNZEhC5GsQ2w5/d76NbYcOGYOmiHwtvr1d/83LeIrXDhpoisjX5MjRUrVDh7yBOTRG5Gty/MVSvWPHC9AOka/FsQYCH2q/2gC2EPlarDYSz6MiDy0R+Vq0sgwSk/xzhwrQBpGvxUojNzTdfIWmiHwNIpwtrXW7+QrNEPkatBbNVu4fACJfhVZ21nRa2OoJrBP5GrS2LTHW5N18hSaIfA1a3JbY2tUHTJTIj2210S2Jbr5CE0R+bEdWS5M8FAVNEPmx9bns0edxwI43gCaI/Nj6mIgj7vGOU//x0uzs9z7e3KO1vf0wUSI/pj5Cee+H2fuuxjtORezjXZxeeamftxm0Lg/VE/kxLTPwMa3HW/Lt9LZ8Ef2I/a0lvjGJh6KgeiI/pmVMwt3STEzvMcU/S8Q/lm+WtYTjoSionsiPadGbrk8vzezVspZwPBQF1RP5Mc170zWm8PfO77w0s1fLWMLxUBRUTeTHMu9DUN3SzHe3y1IsuoTj5itUTeTHst+HoGJpJqbu/S7N7FVM86+/tv8lHA9FQdVEfix7XeZY1tLMXjx+/PMSzl6vFOyVh6odLIxjLxNwTNVfXev3ydXtdC8sp8+U8sGHz34nqG6v/4/3C0sUfwbxYgsLEvkx7PYQVCzN9PWk6n7EEk5M9GfPlfL+hzv/e6urIt+Hsf/8ScFyzRh2CnxM7BH3IZZm9movSzh22EC1RH4M2+1IuX5tdtbMMp9IXaZuCWe7KwwPRUG1RH4MmyffWJqJXS2fXxx+7X0e8SIUVxo3rv38NQ9FQbVEfgxx03Xz0syDxtazY5L/7OJsCadbi19t9Fx8SM6N16HFQ1DfrE3DVy63Mbk/S8Q+HsyKXTiH/33tC3cLUJcDm3/x0wvPf7/2lZcLAClYrgFITOQBEhN5gMREHiAxkQdITOQBEhN5gMREHiAxkQdITOQBEhN5gMREHiAxkQdITOQBEhN5gMREHiAxkQdITOQBEhN5gMREHiAxkQdITOQBEhN5gMREHiAxkQdITOQBEhN5gMREHiAxkQdITOQBEhN5gMREHiAxkQdITOQBEhN5gMREHiAxkQdITOQBEhN5gMREHiAxkQdITOQBEhN5gMREHiAxkQdITOQBEhN5gMREHiAxkQdITOQBEhN5gMREHiAxkQdITOQBEhN5gMREHiAxkQdITOQBEhN5gMREHiAxkQdITOQBEhN5gMREHiAxkQdITOQBEhN5gMREHiAxkQdITOQBEhN5gMREHiAxkQdI7GChbYdXSjmyWspKfD5aynOHZv8cnztPHpfyeOPjx/ulPFj7ePRw7Z8fFCA3kW9NxPvEyVKOvTj7iKDvx8lTP/9zxP/+WvBv3Szl3t1Z+OFpq0dngwFNOrD5Fz+98Pz3a195uVCfY8dLOXuulOMvbp3Sl+nuD7Pgf3tn9gIAMUj8159LeeUlPxONMsnX7vSbax9nZnHvW/xvxEdM9BH8q5dN91P3/oelHFobKs6+O/t5oDkm+VrF5H7pT7M197FE4L+56S/3VMWAET+DIe7nmOabZHdNbSLqN74u5S//O27gu9/LB78v5e//mP2FZ1riz74T03xM9TRH5GsSa+5//dswSzP7EbGPie7jT/q7H0Bd4kX96SHjnXPjDx7sm8jXIMJ54ZPZR80RfWfjRchf9Pw2T/GbmeabI/Jji2D+5evZFN+C+P3+/99m9wzIabspvvPGGX/2jRH5MXWBj33ILYn12bhnELt+yCWuJHea4ju7/fdUReTH0gW+5aWPS18IfTZn97Duvv4gnmm+FSI/hgyB7wh9HvHz+MYed1GZ5psh8mOIJwgz3byMG8ZHGlty4pfipupefy5N880Q+aFFEFtbg99NrNH/959tr2zZ+hS/zyuyC58W6ifyQ4r1zlZ20exXRCJCT5vm2RoZw4qH5Kon8kNZf3o0+R7juIR/+91CY+aZ4juxNu8KrmoiP5SYlKbwlyH+0ntYqi2LPOAUf9ZnvbDXTOSHEJe0b0xkB8qhjad3aUMsuSz6sxlLkKb5aon8EKa23ezEKTsvWvHxEl6Qu6OIqZLI9+1Zj4hnZh91/eJnc1mH4ZnmqyXyfZtq7Oyjrt8yfzZN89US+T5F6KZ8E/LVU4VK9XGFuZcjERicyPdp6nuI44aeS/g69XGF6Y1FqiTyfYkf+KnsqNlJfA88LFOfPu8TOYq4OiLfl1dPFtactGRTnb7vE7npXhWR78sJcVsXB5dZsqnH+wM8rOame1VEvi/ZDiGbVyzZrK4WKrCfo4QXZZqvhsj3IQJvl8HPHENch9jiONTPpWm+GiLfh8OHC5ss64Eb5rd+xszAJ6Ca5qsg8n0wuW5l6Wp8Y2xtjGne7qrRiXwfRG0rS1fjWuQo4UWZ5kcn8n2wm+SXhH48Yz6gFH/uHpAalcj34dciTyXGnOI7Di8blcj3wQ/0L7kZPY4/flFG5/CyUYk8ZHXiZD07m0zzoxF5yOrCp6UapvnRiDxkVOOb1TiKeBQi34cnjwtPefSoMKAaty46ingUIt+Hhw8LT3nkezKYmt9yMnb6mOYHJfJ9ELStHruyGVTtDyBdqmDHz4SIfB8sTWz14/3CQIY4SnhRDi8blMj34YGobXHf92MQQx4lvCjHHQxG5Ptgct3q3t3CAE43tN5tmh+MyPch1qDv/VDY4EWvfxH3DxrbuWKaH4TI9+Wu6XVdLF25Ed2/FrcmxjTvvZB7J/J9McnP3PV96F0Nh5DN6z8reio3KZHvS0TeMkUpt/6v0LOWHzCKF6i3HXfQJ5Hv0507ZdJiqcYLXb9anuI7sTbv8LLeiHyfblyb9hEH1/+n0LMLn5TmObysVyLfp9hl89VEQxc3W2/dLPQoblyeOFVScBRxb0S+b1Od5q9cLvQs0/EApvneiHzfpjjNm+L7V/MhZPMyzfdC5IcwtWneFN+/jA8SOYq4FyI/hJjm//BRmYSY4E3x/co4xXfe8cYiyybyQ/n2dinf3S6pxTKNKb5/2Y8DcBTxUon8kGKaz/yI/2cXHWHQt8xTfMfhZUsl8kOKZZvfnc+5Pn/1y/xXKmNbP4RsIod6ObxsaUR+aPEUaEy8mcQavGWa/rV0lPCiTPNLI/JjiCheTRLFeNGayk3lMbV4lPCiTPNLIfJjufJl+6GPQ9h++1ZhAFPcWmiaXwqRH1OE/vNGl27iaiQCP+WzeYaS4RCyeV36U2ExIj+269dKef21tnalxE1WSzTDmfIDQvECd7qR962tlMjXINa1Yyqu/VjemNrfO+8m65CmPMV3LnzquIMFiHwtYpL/zWv1rtPH+nv8/myTHJbH/B1etiCRr02s07/yUj1HA8SLT0zvcaXhQadhxY3HqU/xHYeXzU3kaxQxjTXvCOtY7xUbSzNxVWF6H0+GNwRZFtP83A5s/sVPLzz//dpXXi7UZX2ie3P2MEzf4kXl2zulfHPTzpkxxc1GO0u2iifG4yrXz+W+iHxL4iZcF/z4vCxx5RAHqEXcx7pyYKu//8NpjNv56lopf0z2xHjPRL5VsT55fONhkdWjs4+9rFnGFBRRjx09d9eCfu+utXZITOSzielvuwkwQh6Xuy51YVIOFnKJmJvMgQ121wAkJvIAiYk8QGIiD5CYyAMkJvIAiYk8QGIiD5CYyAMkJvIAiYk8QGIiD5CYyAMkJvIAiYk8QGIiD5CYyAMkJvIAiYk8QGIiD5CYyAMkJvIAiYk8QGIiD5CYyAMkJvIAiYk8QGIiD5CYyAMkJvIAiYk8QGIiD5CYyAMkJvIAiYk8QGIiD5CYyAMkJvIAiYk8QGIiD5CYyAMkJvIAiYk8QGIiD5CYyAMkJvIAiYk8QGIiD5CYyAMkJvIAiYk8QGIiD5CYyAMkJvIAiYk8QGIiD5CYyAMkJvIAiYk8QGIiD5CYyAMkJvIAiYk8QGIiD5CYyAMkJvIAiYk8QGIiD5CYyAMkJvIAiYk8QGIHt/zqV+Wfa/95oACQwr8AEGR/tYeLYswAAAAASUVORK5CYII=;imageBackground=none;fillStyle=cross-hatch;opacity=50;" vertex="1" parent="1">
          <mxGeometry x="475" y="820" width="60" height="60" as="geometry" />
        </mxCell>
        <mxCell id="82siV1Ass7THwQfGUrbe-31" value="Standalone database" style="text;html=1;align=left;verticalAlign=middle;whiteSpace=wrap;rounded=0;imageAlign=center;fontStyle=0;fontSize=17;fontFamily=Helvetica;labelBorderColor=none;labelBackgroundColor=none;fontColor=#161F31;" vertex="1" parent="1">
          <mxGeometry x="620" y="405" width="100" height="30" as="geometry" />
        </mxCell>
        <mxCell id="82siV1Ass7THwQfGUrbe-32" value="Highly Available database" style="text;html=1;align=left;verticalAlign=middle;whiteSpace=wrap;rounded=0;imageAlign=center;fontStyle=0;fontSize=17;fontFamily=Helvetica;labelBorderColor=none;labelBackgroundColor=none;fontColor=#161F31;" vertex="1" parent="1">
          <mxGeometry x="620" y="525" width="130" height="30" as="geometry" />
        </mxCell>
        <mxCell id="82siV1Ass7THwQfGUrbe-33" value="Clustered database" style="text;html=1;align=left;verticalAlign=middle;whiteSpace=wrap;rounded=0;imageAlign=center;fontStyle=0;fontSize=17;fontFamily=Helvetica;labelBorderColor=none;labelBackgroundColor=none;fontColor=#161F31;" vertex="1" parent="1">
          <mxGeometry x="620" y="645" width="100" height="30" as="geometry" />
        </mxCell>
        <mxCell id="82siV1Ass7THwQfGUrbe-34" value="Clustered &lt;br&gt;Highly Available&lt;br style=&quot;font-size: 17px;&quot;&gt;database" style="text;html=1;align=left;verticalAlign=middle;whiteSpace=wrap;rounded=0;imageAlign=center;fontStyle=0;fontSize=17;fontFamily=Helvetica;labelBorderColor=none;labelBackgroundColor=none;fontColor=#161F31;" vertex="1" parent="1">
          <mxGeometry x="620" y="800" width="130" height="30" as="geometry" />
        </mxCell>
        <mxCell id="82siV1Ass7THwQfGUrbe-35" value="Node 1" style="text;html=1;align=left;verticalAlign=middle;whiteSpace=wrap;rounded=0;imageAlign=center;fontStyle=0;fontSize=17;fontFamily=Helvetica;labelBorderColor=none;" vertex="1" parent="1">
          <mxGeometry x="40" y="260" width="140" height="30" as="geometry" />
        </mxCell>
        <mxCell id="82siV1Ass7THwQfGUrbe-36" value="Node 2" style="text;html=1;align=left;verticalAlign=middle;whiteSpace=wrap;rounded=0;imageAlign=center;fontStyle=0;fontSize=17;fontFamily=Helvetica;labelBorderColor=none;" vertex="1" parent="1">
          <mxGeometry x="230" y="260" width="140" height="30" as="geometry" />
        </mxCell>
        <mxCell id="82siV1Ass7THwQfGUrbe-37" value="Node 3" style="text;html=1;align=left;verticalAlign=middle;whiteSpace=wrap;rounded=0;imageAlign=center;fontStyle=0;fontSize=17;fontFamily=Helvetica;labelBorderColor=none;" vertex="1" parent="1">
          <mxGeometry x="420" y="260" width="140" height="30" as="geometry" />
        </mxCell>
        <mxCell id="82siV1Ass7THwQfGUrbe-38" style="edgeStyle=orthogonalEdgeStyle;rounded=0;orthogonalLoop=1;jettySize=auto;html=1;exitX=0.5;exitY=1;exitDx=0;exitDy=0;" edge="1" parent="1" source="82siV1Ass7THwQfGUrbe-34" target="82siV1Ass7THwQfGUrbe-34">
          <mxGeometry relative="1" as="geometry" />
        </mxCell>
        <mxCell id="82siV1Ass7THwQfGUrbe-41" value="" style="shape=curlyBracket;whiteSpace=wrap;html=1;rounded=1;labelPosition=left;verticalLabelPosition=middle;align=right;verticalAlign=middle;direction=south;size=0.5;" vertex="1" parent="1">
          <mxGeometry x="40" y="210" width="550" height="40" as="geometry" />
        </mxCell>
        <mxCell id="82siV1Ass7THwQfGUrbe-42" value="Multi-Tenant Redis Enterprise Cluster" style="text;html=1;align=left;verticalAlign=middle;whiteSpace=wrap;rounded=0;imageAlign=center;fontStyle=1;fontSize=17;fontFamily=Helvetica;labelBorderColor=none;labelBackgroundColor=none;fontColor=#161F31;" vertex="1" parent="1">
          <mxGeometry x="158.5" y="160" width="313" height="30" as="geometry" />
        </mxCell>
        <mxCell id="82siV1Ass7THwQfGUrbe-43" value="" style="pointerEvents=1;shadow=0;dashed=0;html=1;strokeColor=none;fillColor=#FF9100;labelPosition=center;verticalLabelPosition=bottom;verticalAlign=top;align=center;outlineConnect=0;shape=mxgraph.veeam.2d.proxy;" vertex="1" parent="1">
          <mxGeometry x="102.6" y="300" width="44.8" height="44.8" as="geometry" />
        </mxCell>
        <mxCell id="82siV1Ass7THwQfGUrbe-44" value="" style="pointerEvents=1;shadow=0;dashed=0;html=1;strokeColor=none;fillColor=#FF9100;labelPosition=center;verticalLabelPosition=bottom;verticalAlign=top;align=center;outlineConnect=0;shape=mxgraph.veeam.2d.proxy;" vertex="1" parent="1">
          <mxGeometry x="292.6" y="300" width="44.8" height="44.8" as="geometry" />
        </mxCell>
        <mxCell id="82siV1Ass7THwQfGUrbe-45" value="" style="pointerEvents=1;shadow=0;dashed=0;html=1;strokeColor=none;fillColor=#FF9100;labelPosition=center;verticalLabelPosition=bottom;verticalAlign=top;align=center;outlineConnect=0;shape=mxgraph.veeam.2d.proxy;" vertex="1" parent="1">
          <mxGeometry x="482.6" y="300" width="44.8" height="44.8" as="geometry" />
        </mxCell>
        <mxCell id="82siV1Ass7THwQfGUrbe-46" value="DMC Proxy" style="text;html=1;align=left;verticalAlign=middle;whiteSpace=wrap;rounded=0;imageAlign=center;fontStyle=2;fontSize=13;fontFamily=Helvetica;labelBorderColor=none;labelBackgroundColor=none;fontColor=#161F31;" vertex="1" parent="1">
          <mxGeometry x="535" y="280" width="100" height="30" as="geometry" />
        </mxCell>
      </root>
    </mxGraphModel>
  </diagram>
</mxfile>
